<?xml version="1.0" encoding="utf-8"?>
<!-- Generator: Adobe Illustrator 21.1.0, SVG Export Plug-In . SVG Version: 6.00 Build 0)  -->
<svg version="1.1" id="Capa_1" xmlns="http://www.w3.org/2000/svg" xmlns:xlink="http://www.w3.org/1999/xlink" x="0px" y="0px"
	 viewBox="0 0 475.1 402" enable-background="new 0 0 475.1 402" xml:space="preserve">
<g>
	<path d="M456.2,91.9c-12.6-12.6-27.6-18.8-45.1-18.8H219.3V64c0-17.5-6.3-32.5-18.8-45.1C187.9,6.3,172.8,0,155.3,0H64
		C46.4,0,31.4,6.3,18.8,18.8C6.3,31.4,0,46.4,0,64V338c0,17.5,6.3,32.5,18.8,45.1C31.4,395.7,46.4,402,64,402h347.2
		c17.5,0,32.6-6.3,45.1-18.8c12.6-12.6,18.8-27.6,18.8-45.1V137C475.1,119.5,468.8,104.5,456.2,91.9z"/>
</g>
</svg>
