<?xml version="1.0" encoding="utf-8"?>
<!-- Generator: Adobe Illustrator 21.1.0, SVG Export Plug-In . SVG Version: 6.00 Build 0)  -->
<svg version="1.1" id="Capa_1" xmlns="http://www.w3.org/2000/svg" xmlns:xlink="http://www.w3.org/1999/xlink" x="0px" y="0px"
	 viewBox="0 0 536.5 402" enable-background="new 0 0 536.5 402" xml:space="preserve">
<g>
	<g>
		<path d="M144.8,196.3c19.6-9,38.4-13.6,56.2-13.6h237.5V137c0-17.5-6.3-32.6-18.9-45.1c-12.6-12.6-27.6-18.8-45.1-18.8H219.3V64
			c0-17.5-6.3-32.5-18.8-45.1C187.9,6.3,172.8,0,155.3,0H64C46.4,0,31.4,6.3,18.8,18.8C6.3,31.4,0,46.4,0,64V338c0,0.8,0,2,0.1,3.6
			c0.1,1.6,0.1,2.8,0.1,3.6l1.4-1.7l96.2-113.1C109.5,216.7,125.1,205.3,144.8,196.3z"/>
		<path d="M528.9,223c-5-2.5-10.8-3.7-17.3-3.7H201c-12.6,0-26.2,3.4-41,10.1c-14.8,6.8-26.2,15-34.4,24.7L29.7,367.2
			c-5.9,6.7-8.9,12.9-8.9,18.8c0,5.7,2.5,9.8,7.6,12.3c5,2.5,10.8,3.7,17.3,3.7h310.6c12.6,0,26.2-3.4,41-10.1
			c14.8-6.8,26.2-15,34.4-24.7l95.9-113.1c5.9-6.7,8.8-12.9,8.8-18.8C536.5,229.5,533.9,225.5,528.9,223z"/>
	</g>
</g>
</svg>
