<?xml version="1.0" encoding="utf-8"?>
<!-- Generator: Adobe Illustrator 17.1.0, SVG Export Plug-In . SVG Version: 6.00 Build 0)  -->
<!DOCTYPE svg PUBLIC "-//W3C//DTD SVG 1.1//EN" "http://www.w3.org/Graphics/SVG/1.1/DTD/svg11.dtd">
<svg version="1.1" id="Слой_1" xmlns="http://www.w3.org/2000/svg" xmlns:xlink="http://www.w3.org/1999/xlink" x="0px" y="0px"
	 viewBox="0 0 170.7 139.3" enable-background="new 0 0 170.7 139.3" xml:space="preserve">
<g>
	<path fill="#4E6A95" d="M47.7,24.9c0.4,0,0.8,0,1.2,0c0.4,0,0.7,0.1,1,0.4c0.8,1.1,1.7,2.2,2.6,3.3c0.2,0.3,0.5,0.4,0.9,0.2
		c0.3-0.3,0.3-0.6,0-0.9c-0.2-0.2-0.3-0.4-0.5-0.6c-0.6-0.8-1.2-1.5-1.9-2.4c0.7,0,1.2,0,1.8,0c0.4,0,0.8-0.2,0.8-0.7
		c0-1.3,0-2.6,0-3.9c0-0.4-0.2-0.6-0.7-0.6c-2,0-4.1,0-6.1,0c-0.4,0-0.7,0.2-0.7,0.7c0,0.7,0,1.3,0,2c0,0.2,0.3,0.5,0.5,0.6
		c0.4,0.1,0.6-0.2,0.6-0.5c0-0.4,0-0.7,0-1.1c0-0.3,0.1-0.4,0.5-0.4c1.4,0,2.9,0,4.3,0c0.3,0,0.5,0.1,0.4,0.4c0,0.6,0,1.3,0,1.9
		c0,0.5-0.1,0.6-0.6,0.6c-1.7,0-3.3,0-5,0c-0.6,0-0.8,0.2-0.8,0.8c0,1.2,0,2.4,0,3.6c0,0.4,0.1,0.7,0.5,0.7c0.5,0,0.6-0.3,0.6-0.8
		c0-0.9,0-1.9,0-2.8C47.2,25,47.3,24.9,47.7,24.9z"/>
	<path fill="#4E6A95" d="M29.8,24.9c0.4,0,0.9,0,1.3,0c0.3,0,0.6,0.2,0.8,0.4c0.9,1.1,1.8,2.2,2.7,3.3c0.2,0.3,0.5,0.4,0.9,0.2
		c0.3-0.3,0.3-0.6,0-0.9c-0.3-0.4-0.6-0.8-0.9-1.1c-0.4-0.6-0.9-1.2-1.4-1.9c0.7,0,1.2,0,1.8,0c0.5,0,0.8-0.3,0.8-0.8
		c0-0.9,0-1.8,0-2.8c0-1.8,0.1-1.6-1.8-1.6c-0.1,0-0.2,0-0.2,0c-0.1,0.2-0.4,0.4-0.4,0.6c0,0.2,0.2,0.4,0.4,0.5c0.1,0.1,0.4,0,0.5,0
		c0.1,0,0.3,0.1,0.3,0.2c0,0.9,0,1.7,0,2.6c-1.8,0-3.4,0-5.2,0c0-0.9,0-1.7,0-2.5c0-0.1,0.3-0.3,0.4-0.3c0.5,0,1,0,1.5,0
		c0.4,0,0.7-0.2,0.7-0.6c0-0.4-0.3-0.6-0.7-0.6c-0.8,0-1.5,0-2.3,0c-0.5,0-0.8,0.2-0.8,0.8c0,2.6,0,5.1,0,7.7c0,0.4,0.1,0.8,0.6,0.8
		c0.4,0,0.6-0.3,0.5-0.7c0-0.9,0-1.9,0-2.8C29.4,25,29.5,24.9,29.8,24.9z"/>
	<path fill="#4E6A95" d="M44.6,20.5c0-0.7-0.1-0.8-0.8-0.8c-2,0-3.9,0-5.9,0c-0.4,0-0.8,0-0.8,0.5c0,0.5,0.4,0.6,0.8,0.6
		c1.7,0,3.3,0,5,0c0.4,0,0.6,0.1,0.6,0.5c0,2,0,3.9,0,5.9c0,0.4-0.1,0.6-0.6,0.6c-1.4,0-2.7,0-4.1,0c-0.5,0-0.6-0.2-0.6-0.6
		c0-1.5,0-3,0-4.6c0-0.4-0.1-0.8-0.6-0.9c-0.5,0-0.6,0.4-0.6,0.8c0,1.8,0,3.7,0,5.5c0,0.7,0.2,0.8,0.8,0.8c2,0,3.9,0,5.9,0
		c0.7,0,0.8-0.2,0.8-0.8c0-1.2,0-2.5,0-3.7c0,0,0,0,0,0C44.6,23.1,44.7,21.8,44.6,20.5z"/>
	<path fill="#4E6A95" d="M22.4,24.9c0.2,0,0.5,0.2,0.7,0.3c0.9,1.1,1.8,2.2,2.7,3.3c0.2,0.3,0.5,0.4,0.9,0.2
		c0.3-0.2,0.3-0.6,0.1-0.9c-0.1-0.1-0.2-0.2-0.3-0.4c-0.7-0.8-1.3-1.7-2.1-2.6c0.7,0,1.2,0,1.7,0c0.5,0,0.8-0.2,0.8-0.8
		c0-1.2,0-2.5,0-3.7c0-0.5-0.2-0.7-0.7-0.7c-2,0-4.1,0-6.1,0c-0.5,0-0.7,0.2-0.7,0.7c0,1.2,0,2.5,0,3.7c0,0.5,0.3,0.8,0.8,0.8
		C20.9,24.9,21.6,24.9,22.4,24.9z M20.5,23.3c0-0.7,0-1.4,0-2c0-0.3,0.1-0.4,0.5-0.4c0.7,0,1.4,0,2.2,0c0.7,0,1.4,0,2.1,0
		c0.4,0,0.5,0.1,0.5,0.5c0,0.6,0,1.3,0,1.9c0,0.3-0.1,0.5-0.5,0.5c-1.4,0-2.9,0-4.3,0C20.6,23.7,20.5,23.7,20.5,23.3z"/>
	<path fill="#4E6A95" d="M17.2,28.9c0.6,0,0.9-0.4,0.6-0.8c-0.1-0.2-0.5-0.3-0.7-0.3c-1.6,0-3.3,0-4.9,0c-0.5,0-0.7-0.2-0.7-0.7
		c0-1.9,0-3.8,0-5.7c0-0.5,0.2-0.6,0.6-0.6c1.3,0,2.7,0,4,0c0.4,0,0.7-0.1,0.7-0.6c0-0.4-0.3-0.6-0.7-0.6c-1.7,0-3.4,0-5,0
		c-0.5,0-0.8,0.2-0.8,0.8c0,2.6,0,5.1,0,7.7c0,0.6,0.2,0.8,0.8,0.8c1,0,2,0,2.9,0c0,0,0,0,0,0C15.2,28.9,16.2,28.9,17.2,28.9z"/>
	<path fill="#4E6A95" d="M20.4,26.2c-0.1-0.2-0.3-0.5-0.5-0.5c-0.2,0-0.5,0.3-0.5,0.5c-0.1,0.7-0.1,1.5,0,2.2c0,0.2,0.3,0.5,0.5,0.5
		c0.2,0,0.5-0.3,0.5-0.5c0.1-0.3,0-0.7,0-1C20.5,26.9,20.5,26.5,20.4,26.2z"/>
	<path fill="#4E6A95" d="M13.6,23.7C13.6,23.7,13.6,23.7,13.6,23.7c-0.2,0-0.4,0-0.6,0c-0.2,0.1-0.4,0.4-0.6,0.5
		c0.2,0.2,0.4,0.5,0.6,0.6c0.4,0.1,0.9,0.1,1.4,0c0.2,0,0.4-0.3,0.4-0.5c0-0.2-0.2-0.4-0.4-0.5C14.2,23.7,13.9,23.7,13.6,23.7z"/>
</g>
<path fill="#4E6A95" d="M155.5,95.2c0.2-2.4,0.1-4.7,0-7.1c0-0.5-0.1-1-0.2-1.6c-0.1,0.3,0,0.6,0,0.8c0.1,2.2,0,4.4-0.3,6.6
	c-0.3,2.6-0.8,5.2-1.6,7.7c-2.2,7.3-6,13.7-11.4,19.1c-5.1,5.1-11.2,8.8-18.1,11c-3.6,1.2-7.4,1.9-11.2,2.1c-1.6,0.1-3.3,0.1-4.9,0
	c-0.8,0-1.6-0.1-2.4-0.2c-0.1,0-0.1-0.1-0.2-0.1c-1.4-0.1-2.7-0.4-4.1-0.6c-0.7-0.1-1.3-0.3-2-0.4c0-0.1-0.1-0.1-0.2-0.1
	c-1.1-0.3-2.1-0.6-3.2-0.9c-0.8-0.3-1.5-0.5-2.3-0.8c0-0.1-0.1-0.1-0.2-0.1c-1.1-0.4-2.1-0.9-3.2-1.4c-0.3-0.2-0.7-0.3-1-0.5l0,0
	l0,0c-0.1-0.1-0.2-0.1-0.3-0.2c-1.5-0.8-3-1.7-4.4-2.7c-0.9-0.6-1.8-1.3-2.7-2c-0.1-0.1-0.2-0.2-0.3-0.3c-1.6-1.3-3.1-2.7-4.5-4.2
	c-0.9-1-1.8-2.1-2.7-3.1c0-0.1-0.1-0.1-0.1-0.2c-1-1.3-1.9-2.6-2.8-4c-0.4-0.7-0.8-1.4-1.2-2.1c0,0,0-0.1,0-0.1
	c-1-1.7-1.8-3.6-2.5-5.4c0-0.1,0-0.1,0-0.2c-0.7-1.7-1.2-3.5-1.6-5.2c-0.3-1.2-0.5-2.3-0.7-3.5c0,0.1,0,0.3,0,0.4
	c0.1,0.7,0.1,1.4,0.2,2.1c0.3,1.8,0.6,3.6,1.1,5.3c0.2,0.6,0.3,1.2,0.5,1.8v0c0,0.1,0,0.2,0,0.2c0.4,1.1,0.8,2.3,1.2,3.4
	c0.3,0.6,0.5,1.3,0.9,1.9l0,0c0.1,0.2,0.1,0.3,0.2,0.5c0.8,1.6,1.6,3.1,2.5,4.6c0.4,0.6,0.7,1.2,1.1,1.7c0,0.1,0.1,0.2,0.1,0.2
	c1.7,2.4,3.6,4.6,5.7,6.7c0.4,0.4,0.9,0.9,1.3,1.2c0.7,0.7,1.5,1.3,2.3,1.9c1.4,1.1,3,2.2,4.6,3.1l0,0v0c1,0.6,2,1.1,3,1.6
	c0.4,0.2,0.9,0.5,1.4,0.6c0.4,0.2,0.8,0.4,1.3,0.6c1.4,0.6,2.8,1.1,4.2,1.5c0.1,0,0.2,0.1,0.3,0.1c1,0.3,2,0.6,3,0.8
	c0.8,0.2,1.5,0.4,2.3,0.5c0,0,0.1,0,0.1,0c0.1,0.1,0.2,0.1,0.3,0.1c0,0,0.1,0,0.1,0c0.1,0.1,0.2,0.1,0.3,0.1c0.1,0,0.2,0.1,0.3,0.1
	c1.4,0.2,2.8,0.3,4.3,0.4c0.1,0,0.3,0,0.4,0.1c1.3,0,2.5,0,3.8,0c0-0.1,0.1-0.1,0.1-0.1c0.4,0,0.8-0.1,1.2-0.1
	c2.4-0.2,4.7-0.5,7-1.1c8.5-2,15.9-6.1,22-12.4c3.5-3.5,6.3-7.5,8.5-12C153.6,106.6,155,101,155.5,95.2z"/>
<path fill="#4E6A95" d="M72.2,94.7c1.6,6.7,4.8,12.5,9.6,17.4c0.2,0.3,0.5,0.5,0.8,0.7c-0.2-0.3-0.4-0.6-0.7-0.8
	c-0.9-1.1-1.7-2.2-2.5-3.3c-4.1-6.2-6.1-13-6.3-20.4c0-2.9,0.3-5.8,0.9-8.6c2.3-9.7,7.5-17.4,15.7-23c0.7-0.5,1.4-0.9,2.2-1.4
	c0.1-0.1,0.2-0.1,0.3-0.2c1.5-0.8,3-1.5,4.5-2.2c1-0.4,2-0.7,3-1.1c0.1,0,0.2,0,0.2,0c1.5-0.4,3.1-0.8,4.6-1.1
	c0.9-0.2,1.8-0.2,2.7-0.4c0.4,0,0.8,0,1.2-0.1c1.1-0.1,2.3-0.1,3.4-0.1c0.1,0.1,0.2,0,0.3,0c1.4,0,2.9,0.2,4.3,0.4
	c0.7,0.1,1.3,0.2,2,0.3c0,0.1,0.1,0.1,0.2,0.1c1.7,0.4,3.3,0.8,4.9,1.4c0.2,0.1,0.5,0.2,0.7,0.2c0,0,0.1,0.1,0.1,0.1
	c1.4,0.6,2.8,1.2,4.2,1.9c0,0,0.1,0.1,0.1,0.1c1.3,0.7,2.6,1.5,3.8,2.3c1.1,0.8,2.2,1.7,3.2,2.6c0.1,0.1,0.1,0.2,0.2,0.1
	c0-0.1-0.1-0.1-0.1-0.1c-1.3-1.4-2.7-2.6-4.2-3.8c-0.9-0.7-1.8-1.4-2.8-1.9v0l0,0c-0.4-0.2-0.7-0.4-1.1-0.7
	c-1.1-0.7-2.2-1.3-3.4-1.8c-1.4-0.7-2.8-1.2-4.2-1.7c-0.6-0.2-1.1-0.4-1.7-0.5c-0.1,0-0.1-0.1-0.2-0.1c-1.2-0.3-2.5-0.6-3.7-0.8
	c-0.7-0.1-1.4-0.2-2.1-0.2c0,0-0.1,0-0.1,0c-0.2-0.1-0.4-0.1-0.6-0.1c-0.9-0.1-1.9-0.1-2.9-0.1c-0.5,0-1,0-1.5,0.1
	c-0.1,0-0.3,0-0.4,0c-1.9,0.1-3.8,0.3-5.7,0.7c-0.6,0.1-1.2,0.2-1.8,0.4c0,0-0.1,0-0.1,0c-0.1,0-0.2,0-0.2,0.1c0,0-0.1,0-0.1,0
	c-0.1,0-0.2,0-0.2,0.1h0c-0.1,0-0.2,0-0.2,0c-1.3,0.4-2.6,0.8-3.9,1.3c-0.9,0.4-1.8,0.7-2.7,1.2v0c-0.1,0.1-0.2,0.1-0.4,0.2
	c-6.3,3.2-11.3,7.8-15,13.7c-3.3,5.3-5.1,11-5.6,17.2c-0.1,1.8-0.1,3.7,0,5.5C71.4,90.9,71.7,92.8,72.2,94.7z"/>
<g>
	<path fill="#4E6A95" d="M98.9,85.1c-0.6,0.3-1.2,0.6-1.8,0.8c-2.4,0.9-5,0.8-7.9,0c-0.1,0-0.1,0-0.2-0.1c0-0.7,0-1.5,0-2.2
		c3.6,1.1,6.7,0.8,9.2-1.1c2.5-1.9,3.7-4.8,3.6-8.5c0.7,0.2,1.4,0.4,2.1,0.6c0,0,0,0,0.1,0.1c0,0.1,0,0.2,0,0.3c0,3-0.8,5.6-2.3,7.7
		c-0.4,0.5-0.8,0.9-1.2,1.4C99.9,84.3,99.4,84.7,98.9,85.1z"/>
	<path fill="#4E6A95" d="M126.2,84.1c-0.5-0.5-0.9-0.9-1.4-1.4c-1.7-1.9-2.6-4.4-2.8-7.4c0-0.1,0-0.1,0-0.2c0.7-0.3,1.4-0.6,2.1-0.8
		c0.3,3.7,1.7,6.5,4.3,8.2c2.6,1.7,5.7,1.7,9.3,0.3c0.1,0.7,0.1,1.5,0.2,2.2c0,0,0,0,0,0.1c-0.1,0-0.2,0.1-0.3,0.1
		c-2.8,1.1-5.5,1.3-8,0.6c-0.6-0.2-1.1-0.4-1.7-0.6C127.4,84.8,126.8,84.5,126.2,84.1z"/>
	<circle fill="#4E6A95" cx="104.3" cy="96.5" r="2.3"/>
	<circle fill="#4E6A95" cx="120.5" cy="96.5" r="2.3"/>
</g>
<g>
	<path fill="#4E6A95" d="M134.9,41.7c0.7-1.1,1.5-2.1,2.5-2.9c-0.5-0.2-0.9-0.5-1.4-0.7c-1.8-0.8-3.6-1.6-5.5-2.2
		c-1.9-0.6-3.7-1.2-5.7-1.6c-1.2-0.3-2.4-0.5-3.6-0.7c-0.8-0.1-1.6-0.2-2.4-0.3c-0.7-0.1-1.4-0.2-2.1-0.2c-0.7,0-1.4-0.1-2.1-0.1
		c-0.1,0-0.2,0-0.2-0.1c-1.3,0-2.6,0-3.9,0c-0.1,0.1-0.2,0.1-0.3,0.1c-0.8,0-1.7,0.1-2.5,0.1c-1.1,0.1-2.1,0.2-3.2,0.3
		c-1.6,0.2-3.2,0.5-4.7,0.9c-0.6,0.1-1.1,0.2-1.7,0.4c-0.9,0.2-1.7,0.5-2.6,0.7c-2,0.6-4,1.4-5.9,2.2c-0.9,0.4-1.7,0.8-2.5,1.2
		c-1.4,0.7-2.7,1.4-4,2.2c-2.4,1.4-4.6,3.1-6.8,4.8c-0.3,0.3-0.7,0.5-0.9,0.8l0,0c-0.1,0-0.2,0.1-0.3,0.3c0.2-0.1,0.3-0.1,0.3-0.2
		c0.1,0,0.2-0.1,0.3-0.2c2.8-2.1,5.8-3.9,9-5.5c1-0.5,2.1-0.9,3.1-1.4c0.1,0,0.2,0,0.2-0.1l0,0c0.1,0,0.1-0.1,0.2-0.1
		c0.1,0,0.3-0.1,0.4-0.1c2.5-1,5.1-1.8,7.7-2.4c0.1,0,0.2,0,0.2-0.1l0,0c0.4-0.1,0.8-0.2,1.2-0.3c0.1,0,0.2,0,0.2-0.1l0,0
		c0.2,0,0.4-0.1,0.5-0.1c0.1,0,0.2,0,0.2-0.1v0c0.1,0,0.1,0,0.2,0c0.1,0,0.2,0,0.2-0.1l0,0c0.1,0,0.1,0,0.2,0c0.1,0,0.2,0,0.2-0.1
		l0,0c0.1,0,0.1,0,0.2,0c0.1,0,0.2,0,0.2-0.1l0,0c0.1,0,0.2,0,0.2,0c0.1,0,0.2,0,0.2-0.1l0,0c0.1,0,0.2,0,0.2,0c0.1,0,0.2,0,0.3-0.1
		c0.1,0,0.2,0,0.2,0c0.1,0,0.2,0,0.2-0.1h0c0.1,0,0.2,0,0.3,0c0.1,0,0.2,0,0.3-0.1c0.1,0,0.2,0,0.2,0c0.1,0,0.3,0,0.4-0.1l0,0l0,0
		l0,0c0.1,0,0.3,0,0.4,0c0.7-0.1,1.4-0.2,2.1-0.2c1.2-0.1,2.3-0.1,3.5-0.2c1.5,0,2.9,0,4.4,0.1c0.5,0,1,0,1.5,0.1
		c1.2,0.1,2.3,0.3,3.5,0.4c1.5,0.2,2.9,0.5,4.4,0.9c2,0.5,3.9,1.1,5.9,1.7c1.8,0.6,3.5,1.4,5.3,2.2
		C133.9,41.2,134.4,41.4,134.9,41.7z"/>
	<path fill="#4E6A95" d="M168.7,86.3c0.1-1-0.1-2-0.2-3c-0.2-2-0.6-4.1-1-6.1c-0.3-1.1-0.5-2.2-0.9-3.3c0-0.1,0-0.2-0.1-0.2
		c-0.2-0.6-0.4-1.2-0.5-1.7v0l0,0c0-0.2-0.1-0.3-0.1-0.5c-1.1-3.3-2.5-6.4-4.1-9.4c-0.4-0.7-0.8-1.4-1.2-2c-0.1-0.1-0.1-0.2-0.2-0.3
		c-0.5-0.8-1.1-1.6-1.6-2.4c-0.8,1.2-1.7,2.2-2.8,3.1c0.2,0.3,0.4,0.6,0.6,0.8c1.7,2.5,3.1,5.2,4.3,8c0.3,0.7,0.6,1.3,0.9,2
		c0,0.1,0,0.1,0,0.2c0.5,1.4,1,2.8,1.5,4.3c1,3.2,1.6,6.4,2,9.7c0,0.3,0,0.6,0.1,0.9v0c0,0.2,0,0.4,0,0.7c0.1,1,0.2,1.9,0.2,2.9
		c0.1,2,0.1,3.9-0.1,5.9c-0.1,1.3-0.2,2.5-0.4,3.8c-0.1,0.5-0.2,1-0.2,1.5c0,0,0,0,0,0.1c-0.1,0.1-0.1,0.2-0.1,0.3c0,0,0,0.1,0,0.1
		c-0.1,0.1-0.1,0.2-0.1,0.3c0,0,0,0.1,0,0.1c-0.1,0.1-0.1,0.2-0.1,0.3c0,0,0,0.1,0,0.1c-0.1,0.1-0.1,0.2-0.1,0.3c0,0,0,0.1,0,0.1
		c-0.1,0.1-0.1,0.2-0.1,0.3c0,0,0,0.1,0,0.1c-0.1,0.1-0.1,0.2-0.1,0.3c0,0,0,0.1,0,0.1c-0.1,0.1-0.1,0.2-0.1,0.3
		c-0.1,0.1-0.1,0.3-0.1,0.5c-0.1,0.1-0.1,0.2-0.1,0.2c-0.1,0.1-0.1,0.3-0.1,0.5c-0.1,0.1-0.1,0.2-0.1,0.3c0,0.1-0.1,0.1-0.1,0.2
		c-0.6,2.5-1.4,4.9-2.3,7.3c-0.3,0.7-0.6,1.4-0.9,2.1c0,0.1-0.1,0.2-0.1,0.3c-2.1,4.6-4.7,8.8-7.9,12.7c-1.5,1.8-3.1,3.5-4.7,5.1
		c-0.2,0.2-0.4,0.4-0.6,0.6c0.3-0.1,0.5-0.3,0.7-0.5c0.1-0.1,0.2-0.1,0.3-0.2c5-4.2,9.1-9.1,12.5-14.7c0.5-0.9,1.1-1.8,1.5-2.8
		c0.1-0.1,0.1-0.2,0.2-0.3c1.2-2.4,2.3-4.9,3.1-7.4c0.2-0.7,0.4-1.4,0.6-2.1c0.1-0.1,0.1-0.2,0.1-0.2c0.1-0.1,0-0.2,0.1-0.3
		c0.1-0.1,0.1-0.2,0.1-0.2c0.1-0.1,0-0.2,0.1-0.3c0.1-0.1,0.1-0.2,0.1-0.2c0,0,0,0,0-0.1c0.1-0.1,0.1-0.2,0.1-0.2
		c0.1-0.4,0.2-0.9,0.3-1.3c0.1-0.1,0.1-0.2,0.1-0.3c0,0,0,0,0-0.1c0.1-0.1,0.1-0.2,0.1-0.2c0,0,0-0.1,0-0.1c0.1-0.1,0.1-0.2,0.1-0.3
		c0.1,0,0.1-0.1,0.1-0.2c0.6-2.9,1-5.7,1.1-8.6c0-0.1,0-0.2,0.1-0.3c0-2,0-3.9,0-5.9C168.7,86.4,168.7,86.4,168.7,86.3z"/>
</g>
<g>
	<path fill="#4E6A95" d="M156.5,50.6c0-0.5,0-1.1,0-1.6c0-0.1,0-0.2,0-0.4c0,0.1,0,0.1,0,0.2c0,0.5,0,1-0.1,1.5
		c-0.1,0.6-0.2,1.2-0.4,1.7c-0.5,1.7-1.4,3.1-2.6,4.3c-1.2,1.2-2.5,2-4.1,2.5c-0.8,0.3-1.7,0.4-2.5,0.5c-0.4,0-0.7,0-1.1,0
		c-0.2,0-0.4,0-0.5,0c0,0,0,0,0,0c-0.3,0-0.6-0.1-0.9-0.1c-0.1,0-0.3-0.1-0.4-0.1c0,0,0,0,0,0c-0.2-0.1-0.5-0.1-0.7-0.2
		c-0.2-0.1-0.3-0.1-0.5-0.2c0,0,0,0,0,0c-0.2-0.1-0.5-0.2-0.7-0.3c-0.1,0-0.1-0.1-0.2-0.1l0,0l0,0c0,0,0,0-0.1,0
		c-0.3-0.2-0.7-0.4-1-0.6c-0.2-0.1-0.4-0.3-0.6-0.5c0,0,0,0-0.1-0.1c-0.4-0.3-0.7-0.6-1-0.9c-0.2-0.2-0.4-0.5-0.6-0.7c0,0,0,0,0,0
		c-0.2-0.3-0.4-0.6-0.6-0.9c-0.1-0.2-0.2-0.3-0.3-0.5c0,0,0,0,0,0c-0.2-0.4-0.4-0.8-0.6-1.2c0,0,0,0,0,0c-0.1-0.4-0.3-0.8-0.4-1.2
		c-0.1-0.3-0.1-0.5-0.2-0.8c0,0,0,0.1,0,0.1c0,0.2,0,0.3,0.1,0.5c0.1,0.4,0.1,0.8,0.2,1.2c0,0.1,0.1,0.3,0.1,0.4v0c0,0,0,0,0,0.1
		c0.1,0.3,0.2,0.5,0.3,0.8c0.1,0.1,0.1,0.3,0.2,0.4l0,0c0,0,0,0.1,0,0.1c0.2,0.4,0.4,0.7,0.6,1.1c0.1,0.1,0.2,0.3,0.3,0.4
		c0,0,0,0,0,0.1c0.4,0.5,0.8,1.1,1.3,1.5c0.1,0.1,0.2,0.2,0.3,0.3c0.2,0.2,0.3,0.3,0.5,0.4c0.3,0.3,0.7,0.5,1,0.7l0,0v0
		c0.2,0.1,0.4,0.3,0.7,0.4c0.1,0.1,0.2,0.1,0.3,0.1c0.1,0.1,0.2,0.1,0.3,0.1c0.3,0.1,0.6,0.3,1,0.3c0,0,0,0,0.1,0
		c0.2,0.1,0.5,0.1,0.7,0.2c0.2,0,0.3,0.1,0.5,0.1c0,0,0,0,0,0c0,0,0,0,0.1,0c0,0,0,0,0,0c0,0,0,0,0.1,0c0,0,0.1,0,0.1,0
		c0.3,0,0.6,0.1,1,0.1c0,0,0.1,0,0.1,0c0.3,0,0.6,0,0.9,0c0,0,0,0,0,0c0.1,0,0.2,0,0.3,0c0.5,0,1.1-0.1,1.6-0.2
		c1.9-0.5,3.6-1.4,5-2.8c0.8-0.8,1.4-1.7,1.9-2.7C156.1,53.2,156.4,51.9,156.5,50.6z"/>
	<path fill="#4E6A95" d="M159.5,48.6c0-0.2,0-0.5,0-0.7c-0.1-0.5-0.1-0.9-0.2-1.4c-0.1-0.3-0.1-0.5-0.2-0.8c0,0,0,0,0-0.1
		c0-0.1-0.1-0.3-0.1-0.4l0,0l0,0c0,0,0-0.1,0-0.1c-0.2-0.7-0.6-1.5-0.9-2.1c-0.1-0.2-0.2-0.3-0.3-0.5c0,0,0-0.1,0-0.1
		c-0.5-0.9-1.1-1.6-1.9-2.3c-0.1-0.1-0.2-0.2-0.3-0.3c-0.1-0.1-0.1-0.1-0.2-0.1h0c0-0.1-0.1-0.1-0.1-0.1c-0.4-0.4-0.8-0.7-1.3-1
		c-0.6-0.4-1.2-0.7-1.8-1c-0.4-0.2-0.8-0.4-1.2-0.5c-0.4-0.1-0.8-0.3-1.3-0.4c-0.3-0.1-0.5-0.1-0.8-0.2c-0.2,0-0.4-0.1-0.5-0.1
		c-0.2,0-0.3,0-0.5,0c-0.2,0-0.3,0-0.5,0c0,0,0,0,0,0c-0.3,0-0.6,0-0.9,0c0,0,0,0-0.1,0c-0.2,0-0.4,0-0.6,0c-0.2,0-0.5,0-0.7,0.1
		c-0.4,0.1-0.7,0.1-1.1,0.2c-0.1,0-0.3,0.1-0.4,0.1c-0.2,0-0.4,0.1-0.6,0.2c-0.5,0.1-0.9,0.3-1.3,0.5c-0.2,0.1-0.4,0.2-0.6,0.3
		c-0.3,0.1-0.6,0.3-0.9,0.5c-0.5,0.3-1,0.7-1.5,1.1c-0.1,0.1-0.2,0.1-0.2,0.2l0,0c0,0,0,0-0.1,0.1c0,0,0.1,0,0.1-0.1
		c0,0,0.1,0,0.1,0c0.6-0.5,1.3-0.9,2-1.2c0.2-0.1,0.5-0.2,0.7-0.3c0,0,0,0,0.1,0l0,0c0,0,0,0,0,0l0,0c0,0,0.1,0,0.1,0
		c0.6-0.2,1.1-0.4,1.7-0.6c0,0,0,0,0.1,0l0,0c0.1,0,0.2,0,0.3-0.1c0,0,0,0,0.1,0l0,0c0,0,0.1,0,0.1,0c0,0,0,0,0.1,0l0,0c0,0,0,0,0,0
		c0,0,0,0,0.1,0l0,0c0,0,0,0,0,0c0,0,0,0,0.1,0l0,0c0,0,0,0,0.1,0c0,0,0,0,0.1,0l0,0c0,0,0,0,0.1,0c0,0,0,0,0.1,0l0,0c0,0,0,0,0.1,0
		c0,0,0.1,0,0.1,0c0,0,0,0,0.1,0c0,0,0,0,0.1,0h0c0,0,0,0,0.1,0c0,0,0.1,0,0.1,0c0,0,0,0,0.1,0c0,0,0.1,0,0.1,0l0,0l0,0l0,0l0,0
		c0,0,0.1,0,0.1,0c0.2,0,0.3,0,0.5,0c0.3,0,0.5,0,0.8,0c0.3,0,0.7,0,1,0c0.1,0,0.2,0,0.3,0c0.3,0,0.5,0.1,0.8,0.1
		c0.3,0.1,0.7,0.1,1,0.2c0.5,0.1,0.9,0.2,1.3,0.4c0.4,0.1,0.8,0.3,1.2,0.5c0.3,0.1,0.6,0.3,0.8,0.4c0.3,0.2,0.7,0.4,1,0.6
		c0.1,0,0.1,0.1,0.2,0.1c0.1,0.1,0.2,0.2,0.3,0.3c0.2,0.2,0.4,0.3,0.6,0.5c0.3,0.3,0.6,0.6,0.9,0.9c0.3,0.3,0.5,0.6,0.8,0.9
		c0.1,0.1,0.2,0.2,0.3,0.4c0.1,0.2,0.2,0.3,0.3,0.5c0.4,0.6,0.7,1.2,1,1.8c0.1,0.2,0.1,0.3,0.2,0.5c0,0,0,0,0,0
		c0.1,0.3,0.2,0.6,0.3,1c0.2,0.7,0.4,1.5,0.5,2.2c0,0.1,0,0.1,0,0.2l0,0v0c0,0.1,0,0.1,0,0.2c0,0.2,0,0.4,0,0.6c0,0.4,0,0.9,0,1.3
		c0,0.3,0,0.6-0.1,0.9c0,0.1,0,0.2,0,0.3c0,0,0,0,0,0c0,0,0,0,0,0.1c0,0,0,0,0,0c0,0,0,0,0,0.1c0,0,0,0,0,0c0,0,0,0,0,0.1
		c0,0,0,0,0,0c0,0,0,0,0,0.1c0,0,0,0,0,0c0,0,0,0,0,0.1c0,0,0,0,0,0c0,0,0,0,0,0.1c0,0,0,0,0,0c0,0,0,0,0,0.1c0,0,0,0.1,0,0.1
		c0,0,0,0,0,0.1c0,0,0,0.1,0,0.1c0,0,0,0,0,0.1c0,0,0,0,0,0c-0.1,0.6-0.3,1.1-0.5,1.7c-0.1,0.2-0.1,0.3-0.2,0.5c0,0,0,0,0,0.1
		c-0.5,1-1.1,2-1.8,2.9c-0.3,0.4-0.7,0.8-1.1,1.2c-0.1,0-0.1,0.1-0.1,0.1c0.1,0,0.1-0.1,0.2-0.1c0,0,0,0,0.1,0
		c1.1-0.9,2.1-2.1,2.8-3.3c0.1-0.2,0.2-0.4,0.3-0.6c0,0,0,0,0-0.1c0.3-0.5,0.5-1.1,0.7-1.7c0.1-0.2,0.1-0.3,0.1-0.5c0,0,0,0,0-0.1
		c0,0,0-0.1,0-0.1c0,0,0,0,0-0.1c0,0,0-0.1,0-0.1c0,0,0,0,0-0.1c0,0,0,0,0,0c0,0,0,0,0-0.1c0-0.1,0-0.2,0.1-0.3c0,0,0,0,0-0.1
		c0,0,0,0,0,0c0,0,0,0,0-0.1c0,0,0,0,0,0c0,0,0,0,0-0.1c0,0,0,0,0,0c0.1-0.6,0.2-1.3,0.3-2c0,0,0,0,0-0.1
		C159.5,49.5,159.5,49.1,159.5,48.6C159.5,48.6,159.5,48.6,159.5,48.6z"/>
	<path fill="#4E6A95" d="M149.3,50.6C149.4,50.6,149.4,50.5,149.3,50.6C149.4,50.5,149.4,50.5,149.3,50.6c0-0.4,0-0.7,0-1
		c0,0,0,0,0-0.1c0,0,0,0,0,0c0,0,0,0-0.1,0c-0.5,0-0.9,0-1.4,0c0,0-0.1,0-0.1,0c0,0,0-0.1,0-0.1c0.2-0.3,0.4-0.5,0.6-0.8
		c0.3-0.4,0.6-0.9,0.9-1.4c0.2-0.4,0.3-0.9,0.1-1.4c-0.1-0.2-0.2-0.4-0.3-0.6c-0.3-0.4-0.6-0.6-1.1-0.7c-0.2,0-0.4-0.1-0.5-0.1
		c-0.2,0-0.4,0-0.6,0c-0.4,0.1-0.7,0.3-0.9,0.6c-0.1,0.1-0.2,0.3-0.3,0.4c-0.2,0.4-0.3,0.8-0.3,1.2c0.1,0.3,0.2,0.6,0.4,0.8
		c0.1,0.1,0.2,0.2,0.3,0.3c0,0,0.1,0,0.1,0c0.2-0.2,0.4-0.4,0.6-0.6c0,0,0,0,0,0c0,0,0,0,0-0.1c-0.2-0.3-0.3-0.7-0.2-1
		c0.1-0.3,0.2-0.5,0.5-0.6c0.2-0.1,0.4-0.1,0.6-0.1c0.1,0,0.2,0,0.3,0.1c0.3,0.2,0.5,0.4,0.6,0.8c0,0.2,0,0.3-0.1,0.5
		c0,0.1-0.1,0.1-0.1,0.2c-0.8,1.1-1.6,2.3-2.3,3.4c-0.1,0.1-0.1,0.2-0.2,0.2c0,0,0.1,0,0.1,0C146.9,50.6,148.1,50.6,149.3,50.6
		C149.3,50.6,149.3,50.6,149.3,50.6z"/>
	<path fill="#4E6A95" d="M144.3,49.7c0.4-0.5,0.6-1.1,0.5-1.8c-0.1-0.6-0.4-1.1-0.8-1.5c-0.3-0.3-0.7-0.4-1.2-0.5
		c-0.4,0-0.9,0-1.3,0.2c0,0-0.1,0.1-0.1,0.1c0,0.3,0,0.7,0,1c0,0,0,0,0,0.1c0.1-0.1,0.2-0.2,0.3-0.2c0.4-0.2,0.7-0.3,1.2-0.2
		c0.3,0.1,0.5,0.2,0.7,0.4c0.2,0.2,0.2,0.5,0.2,0.7c0,0.4-0.1,0.7-0.3,1c-0.3,0.4-0.7,0.5-1.3,0.4c-0.6-0.1-1.1-0.6-1.1-1.3
		c0-1.2,0-2.5,0-3.7c0-0.1,0-0.1-0.1-0.1c-0.3,0-0.5,0-0.8,0c-0.1,0-0.1,0-0.1,0.1c0,1.3,0,2.5,0,3.8c0,0.1,0,0.3,0,0.4
		c0.1,0.5,0.3,0.9,0.7,1.2c0.6,0.5,1.2,0.6,2,0.5C143.5,50.4,143.9,50.2,144.3,49.7z"/>
	<path fill="#4E6A95" d="M154.6,47c-0.4-0.6-1-1-1.8-1.1c-0.4,0-0.8,0-1.2,0.3c0,0-0.1,0.1-0.1,0.1c0,0.3,0,0.7,0,1c0,0,0,0,0,0.1
		c0,0,0.1-0.1,0.1-0.1c0,0,0.1-0.1,0.1-0.1c0.5-0.3,0.9-0.3,1.4-0.1c0.4,0.1,0.6,0.4,0.7,0.8c0.1,0.2,0,0.4,0,0.6
		c-0.1,0.3-0.2,0.6-0.5,0.8c-0.3,0.2-0.6,0.3-0.9,0.3c-0.3,0-0.6-0.2-0.9-0.4c-0.2-0.2-0.4-0.5-0.4-0.9c0-1.3,0-2.5,0-3.8
		c0-0.1,0-0.1-0.1-0.1c-0.3,0-0.5,0-0.8,0c-0.1,0-0.1,0-0.1,0.1c0,1.3,0,2.5,0,3.8c0,0.1,0,0.2,0,0.2c0,0.3,0.1,0.6,0.3,0.8
		c0.4,0.7,1.1,1,1.8,1.1c0.5,0,0.9-0.1,1.3-0.3c0.7-0.4,1.1-1,1.1-1.8C155,48,154.9,47.5,154.6,47z"/>
	<path fill="#4E6A95" d="M137.6,50.5c0.4,1.5,1.1,2.8,2.2,3.9c0,0.1,0.1,0.1,0.2,0.2c0-0.1-0.1-0.1-0.2-0.2
		c-0.2-0.2-0.4-0.5-0.6-0.8c-0.9-1.4-1.4-2.9-1.4-4.6c0-0.7,0.1-1.3,0.2-1.9c0.5-2.2,1.7-3.9,3.6-5.2c0.2-0.1,0.3-0.2,0.5-0.3
		c0,0,0,0,0.1,0c0.3-0.2,0.7-0.4,1-0.5c0.2-0.1,0.4-0.2,0.7-0.2c0,0,0,0,0.1,0c0.3-0.1,0.7-0.2,1-0.2c0.2,0,0.4-0.1,0.6-0.1
		c0.1,0,0.2,0,0.3,0c0.3,0,0.5,0,0.8,0c0,0,0,0,0.1,0c0.3,0,0.6,0,1,0.1c0.1,0,0.3,0.1,0.4,0.1c0,0,0,0,0,0c0.4,0.1,0.8,0.2,1.1,0.3
		c0.1,0,0.1,0,0.2,0.1c0,0,0,0,0,0c0.3,0.1,0.6,0.3,1,0.4c0,0,0,0,0,0c0.3,0.2,0.6,0.3,0.9,0.5c0.3,0.2,0.5,0.4,0.7,0.6
		c0,0,0,0,0.1,0c0,0,0,0,0,0c-0.3-0.3-0.6-0.6-1-0.9c-0.2-0.2-0.4-0.3-0.6-0.4v0l0,0c-0.1,0-0.2-0.1-0.2-0.1
		c-0.3-0.1-0.5-0.3-0.8-0.4c-0.3-0.1-0.6-0.3-1-0.4c-0.1,0-0.3-0.1-0.4-0.1c0,0,0,0,0,0c-0.3-0.1-0.6-0.1-0.8-0.2
		c-0.2,0-0.3-0.1-0.5-0.1c0,0,0,0,0,0c0,0-0.1,0-0.1,0c-0.2,0-0.4,0-0.6,0c-0.1,0-0.2,0-0.3,0c0,0-0.1,0-0.1,0
		c-0.4,0-0.9,0.1-1.3,0.2c-0.1,0-0.3,0-0.4,0.1c0,0,0,0,0,0c0,0,0,0-0.1,0c0,0,0,0,0,0c0,0,0,0-0.1,0h0c0,0,0,0-0.1,0
		c-0.3,0.1-0.6,0.2-0.9,0.3c-0.2,0.1-0.4,0.2-0.6,0.3v0c0,0-0.1,0-0.1,0c-1.4,0.7-2.6,1.8-3.4,3.1c-0.7,1.2-1.2,2.5-1.3,3.9
		c0,0.4,0,0.8,0,1.2C137.4,49.6,137.5,50.1,137.6,50.5z"/>
	<path fill="#4E6A95" d="M143.1,53.3c0,0-0.1,0-0.1,0c-0.2,0.1-0.4,0.1-0.6,0.1c-0.3,0-0.7,0-1,0c-0.2,0-0.3,0-0.5-0.1
		c-0.2,0-0.3-0.1-0.3-0.3c0-0.1,0-0.1,0-0.2c0,0,0,0,0,0c-0.1,0-0.2,0-0.3,0c0,0,0,0,0,0c0,0.1,0,0.1,0,0.2c0,0.3,0.1,0.5,0.4,0.6
		c0.2,0.1,0.4,0.1,0.6,0.1c0.4,0,0.8,0,1.2,0c0.2,0,0.3,0,0.5,0c0.2,0,0.4-0.1,0.6-0.2c0.1-0.1,0.2-0.2,0.2-0.3c0-0.1,0-0.3,0-0.4
		c0-0.2-0.1-0.4-0.3-0.5c-0.1,0-0.1-0.1-0.2-0.1c-0.2,0-0.3-0.1-0.5-0.1c-0.5,0-1,0-1.5,0c0,0-0.1,0-0.1,0c-0.2,0-0.3-0.2-0.4-0.3
		c0-0.1,0-0.1,0-0.2c0-0.1,0.1-0.3,0.3-0.3c0.1,0,0.2,0,0.3,0c0.5,0,1,0,1.4,0c0.1,0,0.2,0,0.3,0.1c0.1,0.1,0.2,0.1,0.2,0.3
		c0,0,0,0.1,0,0.1c0,0,0,0.1,0.1,0.1c0.1,0,0.2,0,0.3,0c0,0,0,0,0,0c0-0.4-0.2-0.6-0.5-0.7c-0.2,0-0.3-0.1-0.5-0.1c-0.3,0-0.7,0-1,0
		c-0.2,0-0.5,0-0.7,0.1c-0.3,0-0.5,0.2-0.5,0.6c0,0.1,0,0.2,0,0.3c0,0.2,0.1,0.4,0.3,0.5c0.1,0,0.2,0.1,0.3,0.1c0.1,0,0.3,0,0.4,0
		c0.3,0,0.5,0,0.8,0c0.3,0,0.5,0,0.8,0c0.1,0,0.1,0,0.2,0c0.2,0,0.3,0.1,0.3,0.3c0,0.1,0,0.2,0,0.3
		C143.3,53.1,143.2,53.2,143.1,53.3z"/>
	<path fill="#4E6A95" d="M148.8,51.2c0.8,0,1.6,0,2.4,0c0,0,0,0,0.1,0c0,0,0,0,0,0c0-0.1,0-0.1,0-0.2c0,0,0-0.1-0.1-0.1
		c0,0,0,0-0.1,0c-0.5,0-0.9,0-1.4,0c-0.5,0-0.9,0-1.4,0c-0.1,0-0.1,0-0.1,0.1c0,0.9,0,1.8,0,2.7c0,0,0,0,0,0c0,0,0,0.1,0.1,0.1
		c0.1,0,0.2,0,0.2,0c0.1,0,0.1,0,0.1-0.1c0-0.4,0-0.7,0-1.1c0-0.1,0-0.1,0.1-0.1c0.8,0,1.5,0,2.3,0c0,0,0,0,0.1,0c0,0,0,0,0,0
		c0-0.1,0-0.1,0-0.2c0,0,0-0.1-0.1-0.1c-0.1,0-0.3,0-0.4,0c-0.6,0-1.3,0-1.9,0c-0.1,0-0.1,0-0.1-0.1
		C148.7,51.8,148.7,51.5,148.8,51.2C148.7,51.2,148.7,51.2,148.8,51.2z"/>
	<path fill="#4E6A95" d="M153.4,51.2C153.5,51.2,153.5,51.2,153.4,51.2c0.5,0,0.9,0,1.4,0c0,0,0,0,0.1,0c0,0,0,0,0,0
		c0-0.1,0-0.1,0-0.2c0-0.1,0-0.1-0.1-0.1c0,0,0,0-0.1,0c-0.5,0-1.1,0-1.6,0c-0.5,0-1.1,0-1.6,0c0,0,0,0-0.1,0c0,0,0,0,0,0
		c0,0.1,0,0.2,0,0.2c0,0,0,0,0,0c0,0,0,0,0.1,0c0.5,0,0.9,0,1.4,0c0.1,0,0.1,0,0.1,0.1c0,0.8,0,1.5,0,2.3c0,0,0,0,0,0.1
		c0,0,0,0.1,0.1,0c0.1,0,0.1,0,0.2,0c0.1,0,0.1,0,0.1-0.1c0-0.8,0-1.5,0-2.3C153.4,51.3,153.4,51.3,153.4,51.2
		C153.4,51.2,153.4,51.2,153.4,51.2z"/>
	<path fill="#4E6A95" d="M144.1,53.3c0.1,0.2,0.2,0.3,0.4,0.4c0.2,0.1,0.4,0.1,0.6,0.1c0.3,0,0.6,0,0.9,0v0c0.3,0,0.5,0,0.8,0
		c0.2,0,0.4,0,0.6-0.1c0.2,0,0.3-0.2,0.4-0.3c0.1-0.1,0.1-0.3,0.1-0.4c0-0.2,0-0.4,0-0.6c0-0.2,0-0.3,0-0.5c0-0.2,0-0.3-0.1-0.5
		c-0.1-0.2-0.2-0.3-0.4-0.4c-0.2-0.1-0.4-0.1-0.5-0.1c-0.6,0-1.2,0-1.8,0c-0.2,0-0.4,0-0.5,0.1c-0.3,0-0.4,0.2-0.5,0.5
		c-0.1,0.2-0.1,0.3-0.1,0.5c0,0.3,0,0.6,0,0.9C144,53,144,53.1,144.1,53.3z M144.4,51.8c0-0.1,0-0.2,0.1-0.3
		c0.1-0.2,0.2-0.3,0.4-0.3c0.1,0,0.2,0,0.3,0c0.6,0,1.2,0,1.7,0c0.1,0,0.2,0,0.4,0.1c0.1,0,0.2,0.1,0.3,0.3c0,0.1,0.1,0.2,0.1,0.3
		c0,0.4,0,0.7,0,1.1c0,0.1,0,0.2-0.1,0.3c-0.1,0.1-0.1,0.2-0.2,0.2c-0.1,0-0.3,0-0.5,0c-0.3,0-0.6,0-0.9,0c-0.2,0-0.5,0-0.8,0
		c-0.1,0-0.2,0-0.3-0.1c-0.1,0-0.2-0.1-0.2-0.2c-0.1-0.1-0.1-0.3-0.1-0.4C144.4,52.4,144.4,52.1,144.4,51.8z"/>
</g>
<path fill="#4E6A95" d="M52.2,40.3c5-3.6,8.6-8.2,9.8-14.5c0.2-1,0.3-2,0.4-3c-0.1-1.3-0.3-2.5-0.4-3.8c-0.1-0.2-0.2-0.3-0.3-0.5
	c-1.6-6.1-5.6-10.4-11.1-13.1C37.4-0.9,24.5,0.2,12.2,8C6.8,11.5,3,16.5,1.9,23c-0.2,1.1-0.2,2.3-0.3,3.5c0.1,1,0.2,2,0.3,3
	c0.5,1.2,0.9,2.5,1.4,3.7c2.8,5.9,7.6,9.4,13.5,11.7c7.4,2.8,15,3.1,22.6,1.3c0.4-0.1,1,0.1,1.4,0.4c3.4,2.7,7.1,5,11.4,5.7
	c0.1,0,0.2,0.1,0.3,0.1c1.1,0.1,2.3,0.5,3-0.8c0.7-1.2-0.3-2-0.9-2.9c-1.1-1.9-2.3-3.7-3.3-5.7C50.8,42,51.1,41.2,52.2,40.3z
	 M49.4,41.5c0.3,1.1,0.6,2.2,1,3.3c0.2,0.5,0.3,1,0.5,1.5c0.1,0.4,1.3,2.1,1.2,2.5l-0.1,0.3c-0.2,0.6-0.9,0.5-1.8,0.4
	c-0.2,0-1-0.2-1.3-0.3c-0.4-0.1-0.8-0.1-1.2-0.4c-0.6-0.4-1.2-0.8-1.8-1.2c-1.4-1-2.8-2-4.2-3c-0.7-0.6-1.2-0.8-1.8-0.6
	c-4,1.1-8.1,1.5-12.2,1.2c-7.2-0.5-13-2.6-17.7-6.5C3,33,1.4,24.2,6.1,16.6c2.2-3.5,5.4-6.5,9.4-8.8c5.6-3.1,11.7-4.7,18.2-4.7
	l0.5,0c7.6,0.1,13.9,2.1,19.1,6c7.6,5.8,9.4,14.7,4.5,22.7c-1.8,3-4.3,5.5-7.4,7.5C49.2,40.2,49.2,40.9,49.4,41.5z"/>
</svg>
