<svg xmlns="http://www.w3.org/2000/svg" viewBox="0 0 283.5 48.2">
    <g fill="#fff">
        <path d="M25.3.8H4.6C3.2.8 2 1.9 2 3.3v41.8c0 1.1.7 2.1 1.8 2.4L25.3.8z"/>
        <path d="M46.3.8H25.8l21.4 46.7c.9-.4 1.5-1.3 1.5-2.3V3.3c.1-1.4-1-2.5-2.4-2.5z"/>
        <path d="M25.3 16.5l6.6 14.2h-10L19 37.4h15.9l4.8 10.1-28.3.2z"/>
        <path d="M91.7 35.1V3.9h6.7v31.2h-6.7z"/>
        <path d="M101.9 47.7V13.4h6.2v3.2c1.1-2.5 3.1-3.7 6-3.7 2.5 0 4.5 1 6.1 2.9 1.6 1.9 2.4 4.7 2.4 8.4 0 3.9-.8 6.9-2.4 8.8-1.6 2-3.7 3-6.2 3-2.6 0-4.4-1-5.5-2.9v14.5h-6.6zm6.3-21.8c0 1.6.1 2.6.3 3.2.2.6.6 1.1 1.2 1.6s1.3.7 2 .7c.9 0 1.7-.5 2.4-1.4.7-.9 1-2.9 1-6 0-4.4-1.2-6.6-3.5-6.6-.9 0-1.7.4-2.4 1.2-.7.8-1.1 2.1-1.1 4v3.3z"/>
        <path d="M131.3 3.9v11.3c1.2-2.4 3.1-3.6 5.9-3.6 1.5 0 2.7.3 3.7 1s1.8 1.6 2.2 2.6c.4 1.1.6 2.6.6 4.7v15.3h-6.4v-13c0-1.6-.1-2.6-.2-3.2-.1-.6-.4-1.1-.8-1.5-.4-.4-.9-.6-1.5-.6-.8 0-1.6.3-2.4 1-.8.7-1.2 2.1-1.2 4.2v13H125V3.9h6.3z"/>
        <path d="M66.1 35.1h-6.6L75.2.8l15.7 34.3h-6.4l-3.7-7.3-8.5-.3 1.7-3.8 4.8-.2-3.6-8z"/>
        <path d="M214.7 13.4h2.2V17c.7-1.3 1.6-2.4 2.6-3.1 1.1-.7 2.3-1.1 3.7-1.1 1.4 0 2.6.4 3.6 1.1 1.1.7 1.8 1.8 2.1 3.2.7-1.4 1.6-2.5 2.7-3.2 1.1-.7 2.3-1.1 3.7-1.1h1.3c1.9.2 3.3 1 4.1 2.2.8 1.3 1.1 2.9 1.1 4.8V35h-2.3V20.2c0-1.7-.4-3-1.1-4-.7-1-1.8-1.4-3.3-1.4h-.6c-1.6.1-2.9.9-3.8 2.2s-1.4 2.9-1.4 4.5v13.6H227V20.4c0-1.6-.3-2.9-1-4s-1.7-1.6-3.2-1.6h-.6c-1.7.1-2.9.9-3.8 2.3-.9 1.4-1.4 2.9-1.5 4.6v13.4h-2.3V13.4z"/>
        <path d="M247.7 13.4h2.2V17c.7-1.3 1.6-2.4 2.6-3.1 1.1-.7 2.3-1.1 3.7-1.1 1.4 0 2.6.4 3.6 1.1 1.1.7 1.8 1.8 2.1 3.2.7-1.4 1.6-2.5 2.7-3.2 1.1-.7 2.3-1.1 3.7-1.1h1.3c1.9.2 3.3 1 4.1 2.2.8 1.3 1.1 2.9 1.1 4.8V35h-2.3V20.2c0-1.7-.4-3-1.1-4-.7-1-1.8-1.4-3.3-1.4h-.6c-1.6.1-2.9.9-3.8 2.2s-1.4 2.9-1.4 4.5v13.6H260V20.4c0-1.6-.3-2.9-1-4s-1.7-1.6-3.2-1.6h-.6c-1.7.1-2.9.9-3.8 2.3-.9 1.4-1.4 2.9-1.5 4.6v13.4h-2.3V13.4z"/>
        <path d="M200.6 13c-6.2 0-11.3 5.1-11.3 11.3s5.1 11.3 11.3 11.3 11.3-5.1 11.3-11.3-5-11.3-11.3-11.3zm0 20.6c-5.2 0-9.4-4.2-9.4-9.4s4.2-9.4 9.4-9.4 9.4 4.2 9.4 9.4-4.2 9.4-9.4 9.4z"/>
        <path d="M186.8 29.7c-1.7 2.4-4.5 3.9-7.6 3.9-5.2 0-9.4-4.2-9.4-9.4s4.2-9.4 9.4-9.4c3.1 0 5.9 1.5 7.6 3.9v-2.9c-2-1.8-4.7-2.9-7.6-2.9-6.2 0-11.3 5.1-11.3 11.3s5.1 11.3 11.3 11.3c2.9 0 5.6-1.1 7.6-2.9v-2.9z"/>
        <path d="M278 35.4v-2.5h-1v-.3h2.4v.3h-1v2.5h-.4z"/>
        <path d="M279.8 35.4v-2.9h.6l.7 2c.1.2.1.3.1.4 0-.1.1-.3.2-.5l.7-2h.5v2.9h-.4V33l-.9 2.4h-.3l-.9-2.4v2.4h-.3z"/>
        <path d="M165.3 30.3V18.4s-.3-5.4-8.9-5.5c-8.6-.1-9.3 7.5-9.3 7.5h6.1s.6-3.8 3.1-3.6c2.5.2 2.8 2.1 2.8 2.1v3.3c-6.9-.4-9.2 1.4-9.2 1.4s-3.6 1.6-3.4 6.3c.2 3.7 2.9 5.9 7.3 5.9 4.5 0 6.4-2.8 6.4-2.8s1 1.3 2.4 2c1.5.7 4.4 0 4.4 0v-3.8c-1.5.3-1.7-.9-1.7-.9zm-8.5 1s-2 .6-3.3-.4c0 0-1.1-1.6-.4-3.2 0 0 1.8-2.9 6.1-2.4 0 .1.3 4.6-2.4 6z"/>
    </g>
</svg>
