<svg xmlns="http://www.w3.org/2000/svg" viewBox="0 0 104.9 45.3">
    <path fill="#373739" d="M51 16.3c1.5 1.6 3 3 5.1 3.9.3.1.6.2 1 .3 1.3.1 2.1-.4 2.5-1.6.3-1 .3-2.1.2-3.1-.1-1.2-.4-2.3-.7-3.5v-.2-.1c.1 0 .1.1.1.2.6 1.9 1.1 3.9 1.2 5.9.1 1.1 0 2.2-.4 3.3-.7 2-2.1 2.7-4.1 2.1-1.3-.4-2.4-1.1-3.5-2-1.4-1.1-2.6-2.5-3.7-3.9-.1-.1-.1-.2-.3-.3-.3-.5-.7-.9-1-1.4-.8-1.3-1.6-2.6-2.3-4-1.3-2.6-2.4-5.3-2.9-8.1 0-.1-.1-.2-.2-.2-1.6-.4-3.3-.7-5-.5-.5 0-1 .1-1.5.3-1 .4-1.4 1.3-1.2 2.3.2.9.7 1.7 1.3 2.5 0 .1.1.1.1.2.1.1.2.2.1.3-.1.1-.2.1-.3 0-1.3-1.4-2.5-2.9-3-4.7-.5-1.9.3-3.2 2.2-3.7.3-.2.7-.2 1.1-.3h1.8c.3.1.7.1 1 .1 2.1.3 4 .9 5.9 1.7 4 1.6 7.8 3.8 11.1 6.6.4.3.8.6 1.1 1 .6.6 1.3 1.2 1.7 1.9-.6-.3-1.1-.7-1.7-1-.2-.1-.4-.3-.6-.3 0-.1-.1-.1-.2-.2-3.8-2.3-7.8-4.2-12.1-5.5-.5-.1-.9-.3-1.4-.4.3.1.3.1.4.2 1.5 3 3.2 5.9 5.2 8.7.5.7 1 1.3 1.5 1.9.5.6 1 1.1 1.5 1.6z"/>
    <path fill="#373739" d="M.5 31.1h1.9c.2 0 .2.1.2.3v13.3c0 .2 0 .3-.3.3H.5V31.1z"/>
    <path fill="#77787B" d="M79.6 40.4v4.2c0 .2-.1.3-.3.3h-1.6c-.2 0-.2-.1-.2-.2v-8.1c.1-3 2.3-5.4 5.2-5.8 2.3-.3 4.2.5 5.7 2.3.2.2.2.3.4 0 1.3-1.6 3-2.4 5-2.4 2.8 0 5.3 2.2 5.8 4.9.1.4.1.8.1 1.2v7.8c0 .2-.1.3-.3.3h-1.6c-.2 0-.3-.1-.3-.3v-8c0-2.1-1.5-3.8-3.5-4-2.1-.2-4 1.1-4.4 3.2 0 .2-.1.4-.1.6v8.1c0 .3-.1.3-.3.3h-1.5c-.2 0-.3 0-.3-.2v-8.1c0-2-1.7-3.9-3.7-4-2.1-.1-3.9 1.2-4.3 3.3 0 .2-.1.5-.1.7.3 1.4.3 2.7.3 3.9z"/>
    <path fill="#77787B" d="M63.9 33.3c.4-.5.7-.9 1.2-1.3 3.6-3 9.1-.9 9.9 3.6.1.4.1.8.1 1.2v7.7c0 .3-.1.4-.4.4h-1.5c-.2 0-.3-.1-.3-.3v-7.9c0-2-1.2-3.6-3.1-4-2.5-.6-4.9 1.3-4.9 3.8v8.1c0 .2-.1.3-.3.3h-1.5c-.3 0-.3-.1-.3-.3v-8.1c0-2-1.7-3.7-3.6-3.9-2.1-.2-3.9 1.2-4.3 3.2-.1.3-.1.6-.1 1v7.8c0 .3-.1.3-.3.3H53c-.2 0-.2 0-.2-.2 0-2.8-.1-5.5 0-8.3.1-2.8 2.2-5.1 4.9-5.6 2.5-.4 4.5.4 6.1 2.4 0 0 0 .1.1.1z"/>
    <path fill="#77787B" d="M50.7 38c0 4.1-3.2 7.3-7.3 7.3s-7.2-3.2-7.2-7.3c0-4 3.1-7.3 7.2-7.3s7.3 3.3 7.3 7.3zm-12.4 0c0 .3 0 .6.1.8.3 2.3 1.9 4.4 4.5 4.6 1.7.2 3.2-.3 4.3-1.6 1.5-1.8 1.8-3.8 1-5.9-1.2-3.3-5.3-4.4-8-2.2-1.3 1.2-1.9 2.6-1.9 4.3z"/>
    <path fill="#373739" d="M8.9 40.5v4.2c0 .3 0 .3-.3.3H7c-.2 0-.2 0-.2-.2v-8c.1-3.1 2.3-5.6 5.4-6 3.5-.4 6.3 2.1 6.7 5.2 0 .3.1.6.1.8v7.9c0 .3 0 .3-.3.3h-1.5c-.2 0-.3-.1-.3-.3v-8c0-2.4-2-4.2-4.4-4-2 .2-3.7 1.9-3.6 4.1v3.7z"/>
    <path fill="#77787B" d="M23.9 38.1c.1 1.9.7 3.4 2.3 4.5 1.9 1.3 4.3 1.2 6.1-.3.3-.2.5-.5.8-.7.1-.1.2-.1.3 0 .3.3.6.6 1 .9.1.1.1.2 0 .3-1.4 1.5-3.1 2.4-5.2 2.5-3.4.2-6.6-2.2-7.3-5.5-.6-2.7.1-5.1 2.1-7.1 1.2-1.2 2.7-1.8 4.5-1.9 2.3-.1 4.2.6 5.8 2.2.2.2.2.3 0 .4-.3.3-.7.7-1 1.1-.1.2-.2.2-.4 0-.7-.7-1.4-1.3-2.3-1.6-2.6-1-5.4.4-6.3 3-.3.7-.4 1.4-.4 2.2z"/>
    <path fill="#C21631" d="M56.3 9.9c.2 0 .4.2.6.3.6.4 1.1.7 1.7 1-.5-.7-1.2-1.3-1.7-1.9.9-.8 1.7-1.6 2.3-2.7.2-.3.3-.7.4-1.1.1-.8-.2-1.5-1-1.9-.7-.3-1.4-.5-2.2-.5-1.9-.1-3.8.2-5.6.6-.3.1-.5.2-.8.1.3-.2.6-.2.8-.3 2.5-.7 5.1-1.1 7.7-.9 1.2.1 2.3.3 3.4.9 1 .6 1.4 1.5 1.2 2.7-.1.9-.5 1.6-1 2.3-1 1.4-2.2 2.5-3.5 3.5-2.3 1.8-4.9 3.2-7.5 4.3-.5-.5-1-1-1.4-1.6.1 0 .1-.1.2-.1 1.5-.9 2.9-1.9 4.3-2.9.6-.6 1.3-1.2 2.1-1.8z"/>
    <path fill="#C21631" d="M47.4 16c.3.5.7.9 1 1.4l-3.6 1.5c-1.6.6-3.2 1.3-4.8 1.8-.1 0-.3.2-.4 0-.1-.2.1-.2.2-.3 2.6-1.5 5.1-2.9 7.6-4.4z"/>
    <path fill="#77787B" d="M104.4 32.1c0 .9-.7 1.6-1.6 1.6-.9 0-1.6-.7-1.6-1.7 0-.9.7-1.6 1.6-1.6.8 0 1.7.8 1.6 1.7zm-1.6-1.3c-.7 0-1.3.6-1.3 1.3 0 .7.6 1.4 1.3 1.4.7 0 1.3-.6 1.3-1.3 0-.8-.6-1.4-1.3-1.4z"/>
    <path fill="#77787B" d="M103.2 32.2c.3.1.3.3.3.6 0 .1 0 .3-.2.2-.2 0-.3 0-.3-.2v-.3c-.1-.2-.2-.2-.4-.2s-.1.2-.1.2c-.1.1.1.4-.2.4-.2 0-.3 0-.3-.3v-1.3c0-.2 0-.2.2-.2h.7c.2 0 .5.1.5.4.2.4.1.6-.2.7zm-.7-.4c0 .2 0 .3.2.3s.3-.1.3-.2c0-.2-.2-.2-.4-.3-.1-.1 0 .1-.1.2z"/>
</svg>
