<svg xmlns="http://www.w3.org/2000/svg" viewBox="0 0 87 14">
    <path fill="#3a138a" d="M.3 3.8h3.5v1.3C4.6 4 5.7 3.6 7 3.6c1 0 2.1.5 2.6 1.5.1-.1.9-1.5 3.3-1.5 2.5 0 3.3 1.7 3.3 3.3v6.6h-3.7V8.2c0-.9-.1-1.7-1.2-1.7-.9 0-1.2.7-1.2 1.7v5.2H6.4V8.2c0-.9-.1-1.7-1.2-1.7-.9 0-1.2.7-1.2 1.7v5.2H.3V3.8z"/>
    <path fill="#3a138a" d="M20.3 9.5c.1 1.1.7 1.9 1.9 1.9.6 0 1.2-.2 1.5-.7h3.4c-.7 2.1-2.8 3-4.9 3-3.1 0-5.4-1.8-5.4-5 0-2.8 2-5.1 5.1-5.1 3.8 0 5.5 2.1 5.5 5.9h-7.1zm3.5-1.9c0-.9-.7-1.6-1.6-1.6-1.1 0-1.7.6-1.9 1.6h3.5z"/>
    <path fill="#3a138a" d="M32.1 3.8h2v2.3h-2v3.4c0 .9.2 1.3 1.1 1.3.3 0 .6 0 .8-.1v2.8c-.7 0-1.6.1-2.4.1-1.6 0-3.3-.2-3.3-2.9V6.1h-1.6V3.8h1.6V.9H32v2.9z"/>
    <path fill="#3a138a" d="M34.8 3.8h3.5v1.5c.6-1.1 1.4-1.8 2.7-1.8.4 0 .7.1 1.1.1V7c-.4-.1-.7-.2-1.4-.2-1.4 0-2.2.9-2.2 2.9v3.8h-3.7V3.8z"/>
    <path fill="#3a138a" d="M47.4 13.7c-3.6 0-5.2-2.4-5.2-5.1 0-2.7 1.6-5 5.2-5s5.2 2.4 5.2 5c0 2.7-1.6 5.1-5.2 5.1m0-7.4c-1.4 0-1.6 1.4-1.6 2.4s.2 2.4 1.6 2.4c1.4 0 1.6-1.4 1.6-2.4 0-1.1-.2-2.4-1.6-2.4"/>
    <path fill="#C25B46" d="M58.6 6.8c2 0 2.8-1.3 2.8-2.5 0-.6-.2-2.6-2.7-2.6h-4.2v5.1h4.1zm-5.3 6.6V.6h5.5c1.2 0 3.8.4 3.8 3.7 0 2.3-1.5 3.6-4.1 3.6h-4v5.5h-1.2z"/>
    <path fill="#C25B46" d="M68.9 13.7c-3.6 0-6.1-2.8-6.1-6.7 0-4 2.5-6.7 6.1-6.7 4.7 0 5.2 4.1 5.2 4.2v.2h-1.2v-.2c-.3-1.9-1.9-3.1-4-3.1C66 1.4 64 3.7 64 7s2 5.6 4.9 5.6c2.2 0 4.1-1.9 4.2-4.3v-.2h1.2v.2c-.3 3.2-2.6 5.4-5.4 5.4"/>
    <path fill="#C25B46" d="M80.1 13.7c-1.9 0-3.4-.5-4.3-1.4-.8-.8-1.2-1.9-1.1-3.2v-.2h1.2v.2c-.1 1 .2 1.7.7 2.3.7.8 2 1.2 3.5 1.2 1.3 0 3.4-.5 3.4-2.6 0-1.9-1.8-2.2-3.9-2.6h-.2c-2-.4-4.4-.9-4.4-3.5C75 1.5 77.2.4 79.4.4c3 0 4.8 1.5 5 4v.2h-1.2v-.2c-.1-1.9-1.4-3-3.8-3-1.5 0-3.2.6-3.2 2.4 0 1.7 1.7 2.1 3.7 2.5l.3.1c1.9.4 4.4.9 4.4 3.7 0 2.5-2.3 3.6-4.5 3.6"/>
    <path fill="#3a138a" d="M86 12.7c.1 0 .2 0 .2-.1s-.1-.1-.2-.1h-.2v.3h.2zm-.2.5h-.1v-.8h.3c.2 0 .3.1.3.2s-.1.2-.2.2l.2.4h-.1l-.2-.4h-.1v.4zm.2.1c.3 0 .6-.2.6-.6 0-.3-.3-.6-.6-.6s-.6.3-.6.6c0 .4.3.6.6.6m-.7-.5c0-.4.3-.7.7-.7.4 0 .7.3.7.7 0 .4-.3.7-.7.7-.4 0-.7-.3-.7-.7"/>
</svg>
