<svg xmlns="http://www.w3.org/2000/svg" viewBox="0 0 170.7 139.3">
    <g fill="#4E6A95">
        <path d="M47.7 24.9h1.2c.4 0 .7.1 1 .4.8 1.1 1.7 2.2 2.6 3.3.2.3.5.4.9.2.3-.3.3-.6 0-.9-.2-.2-.3-.4-.5-.6-.6-.8-1.2-1.5-1.9-2.4h1.8c.4 0 .8-.2.8-.7v-3.9c0-.4-.2-.6-.7-.6h-6.1c-.4 0-.7.2-.7.7v2c0 .2.3.5.5.6.4.1.6-.2.6-.5v-1.1c0-.3.1-.4.5-.4H52c.3 0 .5.1.4.4v1.9c0 .5-.1.6-.6.6h-5c-.6 0-.8.2-.8.8v3.6c0 .4.1.7.5.7.5 0 .6-.3.6-.8v-2.8c.1-.4.2-.5.6-.5z"/>
        <path d="M29.8 24.9h1.3c.3 0 .6.2.8.4l2.7 3.3c.2.3.5.4.9.2.3-.3.3-.6 0-.9-.3-.4-.6-.8-.9-1.1-.4-.6-.9-1.2-1.4-1.9H35c.5 0 .8-.3.8-.8v-2.8c0-1.8.1-1.6-1.8-1.6h-.2c-.1.2-.4.4-.4.6 0 .2.2.4.4.5.1.1.4 0 .5 0 .1 0 .3.1.3.2v2.6h-5.2v-2.5c0-.1.3-.3.4-.3h1.5c.4 0 .7-.2.7-.6 0-.4-.3-.6-.7-.6H29c-.5 0-.8.2-.8.8v7.7c0 .4.1.8.6.8.4 0 .6-.3.5-.7v-2.8c.1-.4.2-.5.5-.5z"/>
        <path d="M44.6 20.5c0-.7-.1-.8-.8-.8h-5.9c-.4 0-.8 0-.8.5s.4.6.8.6h5c.4 0 .6.1.6.5v5.9c0 .4-.1.6-.6.6h-4.1c-.5 0-.6-.2-.6-.6v-4.6c0-.4-.1-.8-.6-.9-.5 0-.6.4-.6.8V28c0 .7.2.8.8.8h5.9c.7 0 .8-.2.8-.8v-3.7c.1-1.2.2-2.5.1-3.8z"/>
        <path d="M22.4 24.9c.2 0 .5.2.7.3l2.7 3.3c.2.3.5.4.9.2.3-.2.3-.6.1-.9-.1-.1-.2-.2-.3-.4-.7-.8-1.3-1.7-2.1-2.6h1.7c.5 0 .8-.2.8-.8v-3.7c0-.5-.2-.7-.7-.7h-6.1c-.5 0-.7.2-.7.7V24c0 .5.3.8.8.8.7.1 1.4.1 2.2.1zm-1.9-1.6v-2c0-.3.1-.4.5-.4H25.3c.4 0 .5.1.5.5v1.9c0 .3-.1.5-.5.5H21c-.4-.1-.5-.1-.5-.5z"/>
        <path d="M17.2 28.9c.6 0 .9-.4.6-.8-.1-.2-.5-.3-.7-.3h-4.9c-.5 0-.7-.2-.7-.7v-5.7c0-.5.2-.6.6-.6h4c.4 0 .7-.1.7-.6 0-.4-.3-.6-.7-.6h-5c-.5 0-.8.2-.8.8v7.7c0 .6.2.8.8.8h6.1z"/>
        <path d="M20.4 26.2c-.1-.2-.3-.5-.5-.5s-.5.3-.5.5c-.1.7-.1 1.5 0 2.2 0 .2.3.5.5.5s.5-.3.5-.5c.1-.3 0-.7 0-1 .1-.5.1-.9 0-1.2z"/>
        <path d="M13.6 23.7H13c-.2.1-.4.4-.6.5.2.2.4.5.6.6.4.1.9.1 1.4 0 .2 0 .4-.3.4-.5s-.2-.4-.4-.5c-.2-.1-.5-.1-.8-.1z"/>
    </g>
    <path fill="#4E6A95" d="M155.5 95.2c.2-2.4.1-4.7 0-7.1 0-.5-.1-1-.2-1.6-.1.3 0 .6 0 .8.1 2.2 0 4.4-.3 6.6-.3 2.6-.8 5.2-1.6 7.7-2.2 7.3-6 13.7-11.4 19.1-5.1 5.1-11.2 8.8-18.1 11-3.6 1.2-7.4 1.9-11.2 2.1-1.6.1-3.3.1-4.9 0-.8 0-1.6-.1-2.4-.2-.1 0-.1-.1-.2-.1-1.4-.1-2.7-.4-4.1-.6-.7-.1-1.3-.3-2-.4 0-.1-.1-.1-.2-.1-1.1-.3-2.1-.6-3.2-.9-.8-.3-1.5-.5-2.3-.8 0-.1-.1-.1-.2-.1-1.1-.4-2.1-.9-3.2-1.4-.3-.2-.7-.3-1-.5-.1-.1-.2-.1-.3-.2-1.5-.8-3-1.7-4.4-2.7-.9-.6-1.8-1.3-2.7-2l-.3-.3c-1.6-1.3-3.1-2.7-4.5-4.2-.9-1-1.8-2.1-2.7-3.1 0-.1-.1-.1-.1-.2-1-1.3-1.9-2.6-2.8-4l-1.2-2.1v-.1c-1-1.7-1.8-3.6-2.5-5.4v-.2c-.7-1.7-1.2-3.5-1.6-5.2-.3-1.2-.5-2.3-.7-3.5v.4c.1.7.1 1.4.2 2.1.3 1.8.6 3.6 1.1 5.3.2.6.3 1.2.5 1.8v.2c.4 1.1.8 2.3 1.2 3.4.3.6.5 1.3.9 1.9.1.2.1.3.2.5.8 1.6 1.6 3.1 2.5 4.6.4.6.7 1.2 1.1 1.7 0 .1.1.2.1.2 1.7 2.4 3.6 4.6 5.7 6.7.4.4.9.9 1.3 1.2.7.7 1.5 1.3 2.3 1.9 1.4 1.1 3 2.2 4.6 3.1 1 .6 2 1.1 3 1.6.4.2.9.5 1.4.6.4.2.8.4 1.3.6 1.4.6 2.8 1.1 4.2 1.5.1 0 .2.1.3.1 1 .3 2 .6 3 .8.8.2 1.5.4 2.3.5h.1c.1.1.2.1.3.1h.1c.1.1.2.1.3.1.1 0 .2.1.3.1 1.4.2 2.8.3 4.3.4.1 0 .3 0 .4.1h3.8c0-.1.1-.1.1-.1.4 0 .8-.1 1.2-.1 2.4-.2 4.7-.5 7-1.1 8.5-2 15.9-6.1 22-12.4 3.5-3.5 6.3-7.5 8.5-12 2.8-4.7 4.2-10.3 4.7-16.1z"/>
    <path fill="#4E6A95" d="M72.2 94.7c1.6 6.7 4.8 12.5 9.6 17.4.2.3.5.5.8.7-.2-.3-.4-.6-.7-.8-.9-1.1-1.7-2.2-2.5-3.3-4.1-6.2-6.1-13-6.3-20.4 0-2.9.3-5.8.9-8.6 2.3-9.7 7.5-17.4 15.7-23 .7-.5 1.4-.9 2.2-1.4.1-.1.2-.1.3-.2 1.5-.8 3-1.5 4.5-2.2 1-.4 2-.7 3-1.1h.2c1.5-.4 3.1-.8 4.6-1.1.9-.2 1.8-.2 2.7-.4.4 0 .8 0 1.2-.1 1.1-.1 2.3-.1 3.4-.1.1.1.2 0 .3 0 1.4 0 2.9.2 4.3.4.7.1 1.3.2 2 .3 0 .1.1.1.2.1 1.7.4 3.3.8 4.9 1.4.2.1.5.2.7.2l.1.1c1.4.6 2.8 1.2 4.2 1.9l.1.1c1.3.7 2.6 1.5 3.8 2.3 1.1.8 2.2 1.7 3.2 2.6.1.1.1.2.2.1 0-.1-.1-.1-.1-.1-1.3-1.4-2.7-2.6-4.2-3.8-.9-.7-1.8-1.4-2.8-1.9-.4-.2-.7-.4-1.1-.7-1.1-.7-2.2-1.3-3.4-1.8-1.4-.7-2.8-1.2-4.2-1.7-.6-.2-1.1-.4-1.7-.5-.1 0-.1-.1-.2-.1-1.2-.3-2.5-.6-3.7-.8-.7-.1-1.4-.2-2.1-.2h-.1c-.2-.1-.4-.1-.6-.1-.9-.1-1.9-.1-2.9-.1-.5 0-1 0-1.5.1h-.4c-1.9.1-3.8.3-5.7.7-.6.1-1.2.2-1.8.4h-.1c-.1 0-.2 0-.2.1h-.1c-.1 0-.2 0-.2.1h-.2c-1.3.4-2.6.8-3.9 1.3-.9.4-1.8.7-2.7 1.2-.1.1-.2.1-.4.2-6.3 3.2-11.3 7.8-15 13.7-3.3 5.3-5.1 11-5.6 17.2-.1 1.8-.1 3.7 0 5.5.5 2.6.8 4.5 1.3 6.4z"/>
    <g fill="#4E6A95">
        <path d="M98.9 85.1c-.6.3-1.2.6-1.8.8-2.4.9-5 .8-7.9 0-.1 0-.1 0-.2-.1v-2.2c3.6 1.1 6.7.8 9.2-1.1 2.5-1.9 3.7-4.8 3.6-8.5l2.1.6.1.1v.3c0 3-.8 5.6-2.3 7.7-.4.5-.8.9-1.2 1.4-.6.2-1.1.6-1.6 1z"/>
        <path d="M126.2 84.1l-1.4-1.4c-1.7-1.9-2.6-4.4-2.8-7.4v-.2c.7-.3 1.4-.6 2.1-.8.3 3.7 1.7 6.5 4.3 8.2 2.6 1.7 5.7 1.7 9.3.3.1.7.1 1.5.2 2.2v.1c-.1 0-.2.1-.3.1-2.8 1.1-5.5 1.3-8 .6-.6-.2-1.1-.4-1.7-.6-.5-.4-1.1-.7-1.7-1.1z"/>
        <circle cx="104.3" cy="96.5" r="2.3"/>
        <circle cx="120.5" cy="96.5" r="2.3"/>
    </g>
    <g fill="#4E6A95">
        <path d="M134.9 41.7c.7-1.1 1.5-2.1 2.5-2.9-.5-.2-.9-.5-1.4-.7-1.8-.8-3.6-1.6-5.5-2.2-1.9-.6-3.7-1.2-5.7-1.6-1.2-.3-2.4-.5-3.6-.7l-2.4-.3c-.7-.1-1.4-.2-2.1-.2-.7 0-1.4-.1-2.1-.1-.1 0-.2 0-.2-.1h-3.9c-.1.1-.2.1-.3.1-.8 0-1.7.1-2.5.1-1.1.1-2.1.2-3.2.3-1.6.2-3.2.5-4.7.9-.6.1-1.1.2-1.7.4-.9.2-1.7.5-2.6.7-2 .6-4 1.4-5.9 2.2-.9.4-1.7.8-2.5 1.2-1.4.7-2.7 1.4-4 2.2-2.4 1.4-4.6 3.1-6.8 4.8-.3.3-.7.5-.9.8-.1 0-.2.1-.3.3.2-.1.3-.1.3-.2.1 0 .2-.1.3-.2 2.8-2.1 5.8-3.9 9-5.5 1-.5 2.1-.9 3.1-1.4.1 0 .2 0 .2-.1.1 0 .1-.1.2-.1s.3-.1.4-.1c2.5-1 5.1-1.8 7.7-2.4.1 0 .2 0 .2-.1l1.2-.3c.1 0 .2 0 .2-.1.2 0 .4-.1.5-.1.1 0 .2 0 .2-.1h.2c.1 0 .2 0 .2-.1h.2c.1 0 .2 0 .2-.1h.2c.1 0 .2 0 .2-.1h.2c.1 0 .2 0 .2-.1h.2c.1 0 .2 0 .3-.1h.2c.1 0 .2 0 .2-.1h.3c.1 0 .2 0 .3-.1h.2c.1 0 .3 0 .4-.1h.4c.7-.1 1.4-.2 2.1-.2 1.2-.1 2.3-.1 3.5-.2 1.5 0 2.9 0 4.4.1.5 0 1 0 1.5.1 1.2.1 2.3.3 3.5.4 1.5.2 2.9.5 4.4.9 2 .5 3.9 1.1 5.9 1.7 1.8.6 3.5 1.4 5.3 2.2.6.8 1.1 1 1.6 1.3z"/>
        <path d="M168.7 86.3c.1-1-.1-2-.2-3-.2-2-.6-4.1-1-6.1-.3-1.1-.5-2.2-.9-3.3 0-.1 0-.2-.1-.2-.2-.6-.4-1.2-.5-1.7 0-.2-.1-.3-.1-.5-1.1-3.3-2.5-6.4-4.1-9.4-.4-.7-.8-1.4-1.2-2-.1-.1-.1-.2-.2-.3-.5-.8-1.1-1.6-1.6-2.4-.8 1.2-1.7 2.2-2.8 3.1.2.3.4.6.6.8 1.7 2.5 3.1 5.2 4.3 8 .3.7.6 1.3.9 2v.2c.5 1.4 1 2.8 1.5 4.3 1 3.2 1.6 6.4 2 9.7 0 .3 0 .6.1.9v.7c.1 1 .2 1.9.2 2.9.1 2 .1 3.9-.1 5.9-.1 1.3-.2 2.5-.4 3.8-.1.5-.2 1-.2 1.5v.1c-.1.1-.1.2-.1.3v.1c-.1.1-.1.2-.1.3v.1c-.1.1-.1.2-.1.3v.1c-.1.1-.1.2-.1.3v.1c-.1.1-.1.2-.1.3v.1c-.1.1-.1.2-.1.3v.1c-.1.1-.1.2-.1.3-.1.1-.1.3-.1.5-.1.1-.1.2-.1.2-.1.1-.1.3-.1.5-.1.1-.1.2-.1.3 0 .1-.1.1-.1.2-.6 2.5-1.4 4.9-2.3 7.3l-.9 2.1c0 .1-.1.2-.1.3-2.1 4.6-4.7 8.8-7.9 12.7-1.5 1.8-3.1 3.5-4.7 5.1l-.6.6c.3-.1.5-.3.7-.5.1-.1.2-.1.3-.2 5-4.2 9.1-9.1 12.5-14.7.5-.9 1.1-1.8 1.5-2.8.1-.1.1-.2.2-.3 1.2-2.4 2.3-4.9 3.1-7.4l.6-2.1c.1-.1.1-.2.1-.2.1-.1 0-.2.1-.3.1-.1.1-.2.1-.2.1-.1 0-.2.1-.3.1-.1.1-.2.1-.2v-.1c.1-.1.1-.2.1-.2.1-.4.2-.9.3-1.3.1-.1.1-.2.1-.3v-.1c.1-.1.1-.2.1-.2v-.1c.1-.1.1-.2.1-.3.1 0 .1-.1.1-.2.6-2.9 1-5.7 1.1-8.6 0-.1 0-.2.1-.3V87c.1-.6.1-.6.1-.7z"/>
    </g>
    <g fill="#4E6A95">
        <path d="M156.5 50.6V49v-.4.2c0 .5 0 1-.1 1.5-.1.6-.2 1.2-.4 1.7-.5 1.7-1.4 3.1-2.6 4.3-1.2 1.2-2.5 2-4.1 2.5-.8.3-1.7.4-2.5.5h-1.6c-.3 0-.6-.1-.9-.1-.1 0-.3-.1-.4-.1-.2-.1-.5-.1-.7-.2-.2-.1-.3-.1-.5-.2s-.5-.2-.7-.3c-.1 0-.1-.1-.2-.1h-.1c-.3-.2-.7-.4-1-.6-.2-.1-.4-.3-.6-.5l-.1-.1c-.4-.3-.7-.6-1-.9-.2-.2-.4-.5-.6-.7l-.6-.9c-.1-.2-.2-.3-.3-.5l-.6-1.2c-.1-.4-.3-.8-.4-1.2-.1-.3-.1-.5-.2-.8v.1c0 .2 0 .3.1.5.1.4.1.8.2 1.2 0 .1.1.3.1.4v.1c.1.3.2.5.3.8.1.1.1.3.2.4v.1c.2.4.4.7.6 1.1.1.1.2.3.3.4v.1c.4.5.8 1.1 1.3 1.5l.3.3c.2.2.3.3.5.4.3.3.7.5 1 .7.2.1.4.3.7.4.1.1.2.1.3.1.1.1.2.1.3.1.3.1.6.3 1 .3h.1c.2.1.5.1.7.2.2 0 .3.1.5.1H145.1c.3 0 .6.1 1 .1h1.3c.5 0 1.1-.1 1.6-.2 1.9-.5 3.6-1.4 5-2.8.8-.8 1.4-1.7 1.9-2.7.2-1.4.5-2.7.6-4z"/>
        <path d="M159.5 48.6v-.7c-.1-.5-.1-.9-.2-1.4-.1-.3-.1-.5-.2-.8v-.1c0-.1-.1-.3-.1-.4v-.1c-.2-.7-.6-1.5-.9-2.1-.1-.2-.2-.3-.3-.5v-.1c-.5-.9-1.1-1.6-1.9-2.3l-.3-.3c-.1-.1-.1-.1-.2-.1 0-.1-.1-.1-.1-.1-.4-.4-.8-.7-1.3-1-.6-.4-1.2-.7-1.8-1-.4-.2-.8-.4-1.2-.5-.4-.1-.8-.3-1.3-.4-.3-.1-.5-.1-.8-.2-.2 0-.4-.1-.5-.1h-1.9-.7c-.2 0-.5 0-.7.1-.4.1-.7.1-1.1.2-.1 0-.3.1-.4.1-.2 0-.4.1-.6.2-.5.1-.9.3-1.3.5l-.6.3c-.3.1-.6.3-.9.5-.5.3-1 .7-1.5 1.1-.1.1-.2.1-.2.2l-.1.1s.1 0 .1-.1h.1c.6-.5 1.3-.9 2-1.2.2-.1.5-.2.7-.3h.2c.6-.2 1.1-.4 1.7-.6h.1c.1 0 .2 0 .3-.1h4.4c.3 0 .5.1.8.1.3.1.7.1 1 .2.5.1.9.2 1.3.4.4.1.8.3 1.2.5.3.1.6.3.8.4.3.2.7.4 1 .6.1 0 .1.1.2.1l.3.3c.2.2.4.3.6.5l.9.9c.3.3.5.6.8.9.1.1.2.2.3.4.1.2.2.3.3.5.4.6.7 1.2 1 1.8.1.2.1.3.2.5.1.3.2.6.3 1 .2.7.4 1.5.5 2.2V51c0 .3 0 .6-.1.9V53.3c-.1.6-.3 1.1-.5 1.7-.1.2-.1.3-.2.5v.1c-.5 1-1.1 2-1.8 2.9-.3.4-.7.8-1.1 1.2-.1 0-.1.1-.1.1.1 0 .1-.1.2-.1h.1c1.1-.9 2.1-2.1 2.8-3.3l.3-.6v-.1c.3-.5.5-1.1.7-1.7.1-.2.1-.3.1-.5v-.1-.1-.1-.1-.1-.1c0-.1 0-.2.1-.3v-.1-.1-.1c.1-.6.2-1.3.3-2v-.1c-.8-.7-.8-1.1-.8-1.6z"/>
        <path d="M149.3 50.6c.1 0 .1-.1 0 0 .1-.1.1-.1 0 0v-1-.1h-1.5-.1v-.1c.2-.3.4-.5.6-.8.3-.4.6-.9.9-1.4.2-.4.3-.9.1-1.4l-.3-.6c-.3-.4-.6-.6-1.1-.7-.2 0-.4-.1-.5-.1h-.6c-.4.1-.7.3-.9.6-.1.1-.2.3-.3.4-.2.4-.3.8-.3 1.2.1.3.2.6.4.8l.3.3h.1l.6-.6V47c-.2-.3-.3-.7-.2-1 .1-.3.2-.5.5-.6.2-.1.4-.1.6-.1.1 0 .2 0 .3.1.3.2.5.4.6.8 0 .2 0 .3-.1.5 0 .1-.1.1-.1.2-.8 1.1-1.6 2.3-2.3 3.4-.1.1-.1.2-.2.2h.1c1 .1 2.2.1 3.4.1z"/>
        <path d="M144.3 49.7c.4-.5.6-1.1.5-1.8-.1-.6-.4-1.1-.8-1.5-.3-.3-.7-.4-1.2-.5-.4 0-.9 0-1.3.2l-.1.1v1.1c.1-.1.2-.2.3-.2.4-.2.7-.3 1.2-.2.3.1.5.2.7.4.2.2.2.5.2.7 0 .4-.1.7-.3 1-.3.4-.7.5-1.3.4-.6-.1-1.1-.6-1.1-1.3v-3.7c0-.1 0-.1-.1-.1h-.8c-.1 0-.1 0-.1.1v4.2c.1.5.3.9.7 1.2.6.5 1.2.6 2 .5.7.1 1.1-.1 1.5-.6z"/>
        <path d="M154.6 47c-.4-.6-1-1-1.8-1.1-.4 0-.8 0-1.2.3l-.1.1v1.1l.1-.1.1-.1c.5-.3.9-.3 1.4-.1.4.1.6.4.7.8.1.2 0 .4 0 .6-.1.3-.2.6-.5.8-.3.2-.6.3-.9.3-.3 0-.6-.2-.9-.4-.2-.2-.4-.5-.4-.9v-3.8c0-.1 0-.1-.1-.1h-.8c-.1 0-.1 0-.1.1v4c0 .3.1.6.3.8.4.7 1.1 1 1.8 1.1.5 0 .9-.1 1.3-.3.7-.4 1.1-1 1.1-1.8.4-.3.3-.8 0-1.3z"/>
        <path d="M137.6 50.5c.4 1.5 1.1 2.8 2.2 3.9 0 .1.1.1.2.2 0-.1-.1-.1-.2-.2-.2-.2-.4-.5-.6-.8-.9-1.4-1.4-2.9-1.4-4.6 0-.7.1-1.3.2-1.9.5-2.2 1.7-3.9 3.6-5.2.2-.1.3-.2.5-.3h.1c.3-.2.7-.4 1-.5.2-.1.4-.2.7-.2h.1c.3-.1.7-.2 1-.2.2 0 .4-.1.6-.1H146.8c.3 0 .6 0 1 .1.1 0 .3.1.4.1.4.1.8.2 1.1.3.1 0 .1 0 .2.1.3.1.6.3 1 .4.3.2.6.3.9.5.3.2.5.4.7.6h.1c-.3-.3-.6-.6-1-.9-.2-.2-.4-.3-.6-.4-.1 0-.2-.1-.2-.1-.3-.1-.5-.3-.8-.4-.3-.1-.6-.3-1-.4-.1 0-.3-.1-.4-.1-.3-.1-.6-.1-.8-.2-.2 0-.3-.1-.5-.1h-1-.1c-.4 0-.9.1-1.3.2-.1 0-.3 0-.4.1h-.1-.1-.1l-.9.3-.6.3h-.1c-1.4.7-2.6 1.8-3.4 3.1-.7 1.2-1.2 2.5-1.3 3.9v1.2c-.1.4 0 .9.1 1.3z"/>
        <path d="M143.1 53.3h-.1c-.2.1-.4.1-.6.1h-1c-.2 0-.3 0-.5-.1-.2 0-.3-.1-.3-.3v-.2h-.3v.2c0 .3.1.5.4.6.2.1.4.1.6.1h1.7c.2 0 .4-.1.6-.2.1-.1.2-.2.2-.3v-.4c0-.2-.1-.4-.3-.5-.1 0-.1-.1-.2-.1-.2 0-.3-.1-.5-.1h-1.5-.1c-.2 0-.3-.2-.4-.3v-.2c0-.1.1-.3.3-.3h1.7c.1 0 .2 0 .3.1.1.1.2.1.2.3v.1s0 .1.1.1h.3c0-.4-.2-.6-.5-.7-.2 0-.3-.1-.5-.1h-1c-.2 0-.5 0-.7.1-.3 0-.5.2-.5.6v.3c0 .2.1.4.3.5.1 0 .2.1.3.1h2.2c.2 0 .3.1.3.3v.3c-.3-.2-.4-.1-.5 0z"/>
        <path d="M148.8 51.2h2.5V51s0-.1-.1-.1h-2.9c-.1 0-.1 0-.1.1v2.7s0 .1.1.1h.2c.1 0 .1 0 .1-.1v-1.1c0-.1 0-.1.1-.1h2.4v-.2s0-.1-.1-.1h-2.3c-.1 0-.1 0-.1-.1.1-.3.1-.6.2-.9-.1 0-.1 0 0 0z"/>
        <path d="M153.4 51.2c.1 0 .1 0 0 0h1.5V51c0-.1 0-.1-.1-.1H151.5h-.1v.2h1.5c.1 0 .1 0 .1.1v2.4s0 .1.1 0h.2c.1 0 .1 0 .1-.1v-2.3c0 .1 0 .1 0 0z"/>
        <path d="M144.1 53.3c.1.2.2.3.4.4.2.1.4.1.6.1H146.8c.2 0 .4 0 .6-.1.2 0 .3-.2.4-.3.1-.1.1-.3.1-.4v-.6-.5c0-.2 0-.3-.1-.5s-.2-.3-.4-.4c-.2-.1-.4-.1-.5-.1h-1.8c-.2 0-.4 0-.5.1-.3 0-.4.2-.5.5-.1.2-.1.3-.1.5v.9c0 .1 0 .2.1.4zm.3-1.5c0-.1 0-.2.1-.3.1-.2.2-.3.4-.3h2c.1 0 .2 0 .4.1.1 0 .2.1.3.3 0 .1.1.2.1.3V53c0 .1 0 .2-.1.3-.1.1-.1.2-.2.2h-2.2c-.1 0-.2 0-.3-.1-.1 0-.2-.1-.2-.2-.1-.1-.1-.3-.1-.4-.2-.4-.2-.7-.2-1z"/>
    </g>
    <path fill="#4E6A95" d="M52.2 40.3c5-3.6 8.6-8.2 9.8-14.5.2-1 .3-2 .4-3-.1-1.3-.3-2.5-.4-3.8-.1-.2-.2-.3-.3-.5-1.6-6.1-5.6-10.4-11.1-13.1C37.4-.9 24.5.2 12.2 8 6.8 11.5 3 16.5 1.9 23c-.2 1.1-.2 2.3-.3 3.5l.3 3c.5 1.2.9 2.5 1.4 3.7 2.8 5.9 7.6 9.4 13.5 11.7 7.4 2.8 15 3.1 22.6 1.3.4-.1 1 .1 1.4.4 3.4 2.7 7.1 5 11.4 5.7.1 0 .2.1.3.1 1.1.1 2.3.5 3-.8.7-1.2-.3-2-.9-2.9-1.1-1.9-2.3-3.7-3.3-5.7-.5-1-.2-1.8.9-2.7zm-2.8 1.2c.3 1.1.6 2.2 1 3.3.2.5.3 1 .5 1.5.1.4 1.3 2.1 1.2 2.5l-.1.3c-.2.6-.9.5-1.8.4-.2 0-1-.2-1.3-.3-.4-.1-.8-.1-1.2-.4l-1.8-1.2-4.2-3c-.7-.6-1.2-.8-1.8-.6-4 1.1-8.1 1.5-12.2 1.2-7.2-.5-13-2.6-17.7-6.5C3 33 1.4 24.2 6.1 16.6c2.2-3.5 5.4-6.5 9.4-8.8 5.6-3.1 11.7-4.7 18.2-4.7h.5c7.6.1 13.9 2.1 19.1 6 7.6 5.8 9.4 14.7 4.5 22.7-1.8 3-4.3 5.5-7.4 7.5-1.2.9-1.2 1.6-1 2.2z"/>
</svg>
