<?xml version="1.0" encoding="UTF-8"?><!DOCTYPE svg PUBLIC "-//W3C//DTD SVG 1.1//EN" "http://www.w3.org/Graphics/SVG/1.1/DTD/svg11.dtd"><svg xmlns="http://www.w3.org/2000/svg"><symbol id="icon-logout" viewBox="0 0 430 512">
    <path d="M319.2 121.2c11 0 20-9 20-20V49.4c0-27.2-22.4-49.4-49.9-49.4H49.9C22.4 0 0 22.2 0 49.4v413.2C0 489.8 22.4 512 49.9 512h239.4c27.5 0 49.9-22.2 49.9-49.4v-51.8c0-11-9-20-20-20s-20 9-20 20v51.8c0 5.2-4.5 9.4-9.9 9.4H49.9c-5.5 0-9.9-4.2-9.9-9.4V49.4c0-5.2 4.5-9.4 9.9-9.4h239.4c5.5 0 9.9 4.2 9.9 9.4v51.8c0 11 9 20 20 20z"/>
    <path d="M424 241.7L317.5 137.9c-7.9-7.7-20.6-7.6-28.3.4-7.7 7.9-7.6 20.6.4 28.3l71.2 69.5H169.6c-11 0-20 9-20 20s9 20 20 20h191.2l-71.2 69.5c-7.9 7.7-8.1 20.4-.4 28.3 7.7 7.9 20.4 8.1 28.3.4l106.5-104c8.1-7.9 8-20.8 0-28.6z"/>
</symbol></svg>