<svg xmlns="http://www.w3.org/2000/svg" viewBox="0 0 283.5 48.2">
    <g fill="#fff">
        <path d="M129.6 7.2c-.7 2.3-1.4 4.6-2 6.9-1.6 5.4-3.1 10.9-4.6 16.3L118.5 46c-.3.9-.8.9-1.5 1-.8.1-1-.3-1.1-1-3.4-11.9-6.8-23.9-10.2-35.8-.3-1.1-.6-2.2-1.1-3.3v29.4c0 1.5 0 2.9.3 4.4.4 2.4 2 3.8 4.4 3.9.4 0 .9-.2 1 .2.2.6.1 1.3 0 1.9 0 .2-.3.2-.5.2H97.4c-.4 0-.6-.1-.5-.5v-.2c0-1.5 0-1.5 1.5-1.6 1.9-.1 3.4-1.7 3.6-3.9.1-.8.2-1.6.2-2.4V8.1c0-.4-.1-.9-.2-1.3-.3-1.4-1-2-2.5-2.1-.7-.1-1.4-.1-2.1-.1-.5 0-.6-.2-.6-.6 0-1.8-.2-1.5 1.5-1.5h10.3c.7 0 1 .2 1.2.9 2.9 10.4 5.9 20.7 8.9 31 0 .1.1.3.3.6.6-2.1 1.2-4 1.7-5.9 1.9-6.6 3.9-13.3 5.8-19.9.6-2 1.2-4.1 1.8-6.1.1-.5.4-.7.9-.7h11.2c.7 0 .9.2.8.8V4c0 .3-.1.5-.5.5-.8.1-1.7.1-2.5.3-1.3.4-1.9 1.1-2.1 2.5-.1.9-.2 1.9-.2 2.8v29.7c0 .6 0 1.2.1 1.7.3 2.1 1.2 2.9 3.3 3 .3 0 .6.1.9 0 .8-.1.9.2.9.9-.1 1.6.2 1.3-1.4 1.3h-14.1c-.8 0-1.1-.2-.9-1v-.5c-.1-.6.1-.9.8-.9 3.2 0 4.2-1 4.2-4.2V7.2v-.3c0 .3 0 .3-.1.3z"/>
        <path d="M23.6 23.7c.1 4.9-.1 10.9.1 16.9.1 2.9 1.1 3.8 4 4h2.1c.3 0 .5.1.5.5.2 1.9.2 1.9-1.7 1.9H11.3c-.7 0-1-.1-.9-.9.1-1.4 0-1.4 1.5-1.4.9 0 1.8-.1 2.6-.3 1.4-.3 2.1-1.2 2.3-2.6.2-1 .2-1.9.2-2.9V4.2c0-.6-.2-.7-.8-.8-3.8-.1-7 1.1-9.2 4.2-1.5 2.1-2.1 4.6-2.5 7.1-.1.4-.1.8-.2 1.1-.1.4.1 1-.3 1.2-.5.2-1.1.1-1.6 0-.4 0-.3-.4-.2-.7l.3-11.9c0-.9.1-1.7 0-2.6 0-.7.2-.8.9-.8h34.1c.7 0 .9.2.9.9.1 4.8.1 9.5.3 14.3 0 .7-.2.9-.8.8h-.7c-.6.1-.7-.2-.8-.7-.3-2.3-.8-4.6-1.7-6.8-2.2-5.1-5.8-6.4-10.5-6.3-.5 0-.5.3-.5.7v8c-.1 3.6-.1 7.1-.1 11.8z"/>
        <path d="M227.4 21.6v18.1c0 .9.1 1.8.2 2.7.3 1.7 1.1 2.3 2.8 2.3 1.5 0 1.4 0 1.4 1.4 0 .6-.2.7-.8.7h-12.7c-.6 0-.8-.1-.8-.7 0-1.4 0-1.4 1.4-1.4 1.8 0 2.6-.8 2.8-2.6.1-1 .1-1.9.1-2.9V9.8c0-1 0-2-.2-3-.3-1.7-1-2.4-2.8-2.5-.4 0-.9.2-1-.2-.2-.5-.1-1.1 0-1.7.1-.2.3-.2.5-.2 2.7-.1 5.4-.2 8.1-.4.7 0 .9.2.9.9.1 6.5.1 12.7.1 18.9z"/>
        <path d="M210.9 28.7v11.5c0 .7.1 1.5.2 2.2.2 1.6 1.1 2.4 2.7 2.4h.4c1.2 0 1-.2 1.1 1.1 0 .8-.2 1.1-1 1.1H202c-.8 0-1-.2-1-1 .1-1.4-.1-1.2 1.2-1.2 2.1 0 3-.8 3.1-2.9.3-4.3.1-8.5.1-12.8 0-2.6.2-5.2-.1-7.8-.2-2.1-.9-2.7-3.1-2.8-.3 0-.8.2-.8-.3-.1-.6-.1-1.1.1-1.7 0-.1.2-.1.4-.1 2.8-.2 5.6-.3 8.4-.5.6 0 .7.2.7.8-.1 3.9-.1 7.9-.1 12z"/>
        <path d="M10.8 26.8v4c0 .5-.1.7-.6.7H2.3c-.5 0-.7-.1-.7-.6v-8c0-.5.1-.7.6-.7h7.9c.6 0 .7.2.7.7-.1 1.2 0 2.6 0 3.9z"/>
        <path d="M275.4 26.8v4c0 .5-.1.7-.6.7h-8c-.4 0-.6-.1-.6-.6v-8.2c0-.4.2-.6.6-.6h8c.5 0 .6.2.6.6v4.1z"/>
        <path d="M38.8 26.8v3.9c0 .5-.1.8-.7.8h-7.7c-.6 0-.7-.2-.7-.7v-7.9c0-.5.1-.7.7-.7h7.8c.5 0 .7.2.7.7-.1 1.2-.1 2.5-.1 3.9z"/>
        <path d="M65.9 26.8v4c0 .5-.1.7-.6.7h-7.9c-.5 0-.7-.2-.7-.7v-8c0-.4.1-.6.6-.6h7.9c.5 0 .6.2.6.6.1 1.3.1 2.6.1 4z"/>
        <path d="M93.4 26.8v3.8c0 .5-.1.8-.7.8h-7.8c-.5 0-.7-.2-.7-.7v-8c0-.5.2-.7.7-.6h7.8c.5 0 .7.2.7.7v4z"/>
        <path d="M211.2 5.9c0 2.1-1.5 3.7-3.5 3.7s-3.6-1.7-3.6-3.7 1.7-3.7 3.6-3.7c2-.1 3.5 1.5 3.5 3.7z"/>
        <path d="M197.3 23c-1.5-3.9-4.2-6.5-8.4-7.3-3.1-.5-5.9 0-8.2 2.5-.5.6-.9 1.3-1.5 2.2v-1V2.9c0-.6-.1-.9-.8-.8-2.6.2-5.3.3-7.9.4-.2 0-.4 0-.5.1-.2.6-.2 1.2-.1 1.8.1.4.5.2.8.2 1.7.1 2.6.8 2.8 2.4.1.8.2 1.5.2 2.3v31c0 2.1 0 4.1-.5 6.1 0 .2-.1.3.1.4.5.3 2-.1 2.3-.5.4-.7.8-1.4 1.3-2 .6-.8 1.2-.8 2-.2.8.6 1.5 1.2 2.3 1.7 2.1 1.6 4.5 1.8 7 1.4 3.7-.6 6.3-2.7 8-5.9 3.2-5.8 3.4-12 1.1-18.3zm-5.8 16.6c-.2.9-.6 1.8-1 2.7-2 3.7-6.7 4.1-9.2.6-1.2-1.7-1.8-3.6-2.1-5.7-.6-4.2-.7-8.3.3-12.5.5-2.2 1.5-4.2 3.3-5.6 2.9-2.3 6.5-1.4 8 2 1.1 2.3 1.4 4.7 1.6 7.2.1 1 0 1.9 0 2.9 0 2.9-.2 5.7-.9 8.4z"/>
        <path d="M168.2 28.7c-.4-3.6-1.6-6.8-4-9.5-5.4-5.7-14.8-5-19.3 1.5-1.8 2.6-2.6 5.5-2.9 8.6-.4 4.3.1 8.5 2.2 12.3 4.4 8 16 8.5 21.1 1 2.3-3.3 3-7 3.1-11 0-1-.1-1.9-.2-2.9zm-7 10.8c-.3 1.4-.8 2.7-1.6 3.9-2.5 3.5-7.4 3.2-9.4-.6-1-1.8-1.4-3.8-1.7-5.8-.2-1.8-.3-3.6-.3-5.8.1-2.7.2-5.8 1.2-8.7.6-1.6 1.4-3.1 2.9-4 2.2-1.5 5.2-1.1 7 1.1 1.3 1.5 2 3.3 2.3 5.3.6 4.7.7 9.7-.4 14.6z"/>
        <path d="M240.7 31.4h16.2c.8 0 1-.3 1-1-.2-2-.4-3.9-1-5.8-.9-2.9-2.3-5.5-4.9-7.3-5-3.6-11.5-2.2-15.1 3.1-1.8 2.8-2.7 5.8-2.9 9.1-.3 4.3.2 8.4 2.2 12.2 2.9 5.6 9.7 7.9 15.1 5.1 2.6-1.3 4.2-3.5 5.6-5.9.8-1.3.7-1.3-.6-2-.5-.3-.7-.2-1 .3-.7 1.4-1.5 2.7-2.6 3.9-2.8 3.3-9.7 3.6-11.6-2.6-.8-2.7-1-5.6-1.1-8.4-.1-.7.3-.7.7-.7zm1.3-11.1c2-3.5 6-3.6 8-.2 1.1 1.8 1.5 3.9 1.7 6 .1.7.1 1.5.1 2.2.1.6-.1.8-.7.8h-10.4c-.3 0-.6.1-.6-.4.1-2.9.4-5.8 1.9-8.4z"/>
        <path d="M278.8 14.5c-1.8 0-3.3 1.5-3.3 3.3 0 1.9 1.4 3.3 3.3 3.3 1.8 0 3.3-1.6 3.3-3.3 0-1.7-1.6-3.3-3.3-3.3zm0 6.1c-1.5 0-2.8-1.3-2.8-2.7 0-1.6 1.2-2.7 2.8-2.7 1.5 0 2.7 1.2 2.7 2.7 0 1.5-1.1 2.7-2.7 2.7z"/>
        <path d="M279.8 18.8c-.3-.4-.5-.7.1-1.1.6-.5.2-1.4-.5-1.5-1.6-.4-1.9-.1-1.9 1.5v1.5c0 .2 0 .4.3.4.2 0 .2-.2.2-.4v-.4c0-.2-.1-.5.2-.7.3-.1.6.1.8.3.1.2.2.4.4.5.2.3.3.8.7.5.3 0-.2-.4-.3-.6zm-1.2-1.1c-.4 0-.7 0-.7-.6s.4-.4.8-.5c.3 0 .8 0 .8.5 0 .6-.5.6-.9.6z"/>
    </g>
</svg>
