<svg xmlns="http://www.w3.org/2000/svg" viewBox="0 0 283.5 79.4">
    <g fill="#30304C">
        <path d="M281.6 5.5c0-2.5-1.8-3.9-4.2-3.8-2.2.1-3.5 1.6-3.7 3.7-.2 2.7-.1 5.5-.2 8.3 0 1.3.6 3.4-2.1 2.7-11.5-2.9-23.2-.9-34.9-1.4-6-.3-10.4-1.9-10.5-9 0-2.8-1.7-4.4-4.5-4.2-2.5.2-3.6 2-3.6 4.4v25.5c0 2.7 1.3 4.6 4.1 4.6 2.8-.1 4-2.1 4-4.8V21.2c11.6 3.2 22.9 1.5 34.1 1.8 10.3.3 10.4.2 13.6 9.9.7 2 1.8 3.5 4 3.5 2.4-.1 4-1.6 4-4.1.1-9 .1-17.9-.1-26.8z"/>
        <path d="M162.5 9.5h40.8c3 0 6.6.2 6.6-4s-3.6-3.9-6.7-3.9h-42.1c-9 0-14.6 4.2-16.8 12.5-2.3 8.6 1.2 16.6 8.9 20.9 1 .4 1.9 1.1 2.9 1.2 16.9.1 33.7 0 50.6 0 .5 0 1-.6 1.5-1 2.7-4.8 1.8-6.6-3.9-6.6-14-.1-28 0-42.1-.1-7.5 0-10.7-3.1-10.6-9.6.2-6.6 3.3-9.3 10.9-9.4z"/>
        <path d="M131.8 28.5c-13.6-.1-27.2 0-40.8-.1-7.2 0-10.6-3.4-10.5-9.8.1-6.1 3.4-9.1 10.4-9.2 13.4-.1 26.8 0 40.1 0 3 0 6.7.4 6.8-3.8.1-4.8-3.9-4.1-7-4.1H90c-8.7 0-13.9 3.6-16.5 11.2-2.7 8.1-.2 16.2 6.8 21.3 2.3 2.3 5.4 2.3 8.3 2.3h42.1c2 0 4.3.8 5.8-1.4 3.7-6.1-.7-6.3-4.7-6.4z"/>
        <path d="M58.5 1.6h-51c-3.1 0-6.5 0-6.3 4.2.2 3.8 3.4 3.7 6.2 3.7h23.5c-3.2 7.3-2 14.4-2.2 21.4-.1 2.8.7 5.4 4 5.4 3.1 0 4.3-2.3 4.2-5.3-.1-4-.1-8.1.1-12.1.3-6.6 2.9-9.2 9.4-9.4 4-.1 8.1-.1 12.1 0 3 0 6-.4 6-4 0-3.7-3-3.9-6-3.9z"/>
        <path d="M127.2 14.9H94.1c-3.4 0-7.8-.5-7.7 4.2.2 4.7 4.7 3.9 8 3.9h33.1c3.2 0 7.2.3 7-4.2-.2-4.3-4.1-3.9-7.3-3.9z"/>
    </g>
    <path fill="#535353" d="M1.5 41.4v18.3c0 9.9 8.1 18.1 18.1 18.1H263c9.9 0 18.1-8.1 18.1-18.1V41.4H1.5z"/>
    <g fill="#FFF" stroke="#FFF" stroke-width=".25" stroke-miterlimit="10">
        <path d="M55.5 50.3h4.9l4 14.3 4.1-14.3h4.7v19.9H70v-17l-4.7 17h-2.4l-4.6-17v17h-2.8V50.3z"/>
        <path d="M107.3 60.3c0 3.4-.6 6-1.8 7.7-1.2 1.7-3 2.6-5.3 2.6s-4.1-.9-5.3-2.6c-1.2-1.7-1.9-4.3-1.9-7.7 0-3.4.6-5.9 1.8-7.7 1.2-1.7 3-2.6 5.3-2.6s4.1.9 5.3 2.6 1.9 4.3 1.9 7.7zm-3.5 0c0-2.4-.3-4.2-.8-5.6-.5-1.4-1.5-2-2.9-2s-2.3.7-2.9 2c-.5 1.4-.8 3.2-.8 5.6 0 2.3.3 4.2.8 5.5.5 1.4 1.5 2.1 2.9 2.1 1.3 0 2.3-.7 2.8-2 .6-1.4.9-3.2.9-5.6z"/>
        <path d="M127.1 50.3h6c1.5 0 2.7.1 3.5.4.8.2 1.5.8 2 1.6s.8 1.9.8 3.1c0 2.2-1 3.7-3 4.4 2.4.7 3.6 2.4 3.6 5 0 1.5-.5 2.7-1.4 3.8-.9 1.1-2.7 1.6-5.4 1.6h-6.1V50.3zm3.3 8.3h2.1c1.5 0 2.4-.3 2.9-.8s.7-1.2.7-2.1c0-1-.3-1.7-.8-2.2-.5-.4-1.4-.6-2.5-.6h-2.4v5.7zm0 9h2.7c2.4 0 3.6-1.1 3.6-3.2 0-.8-.3-1.6-.8-2.2-.5-.7-1.6-1-3.1-1h-2.4v6.4z"/>
        <path d="M160.1 50.3h3.3v19.9h-3.3V50.3z"/>
        <path d="M183.9 50.3h3.3v17.1h7v2.8h-10.3V50.3z"/>
        <path d="M212.8 50.3h11.4V53h-8.1v5.7h6.4v2.7h-6.4v6.2h8.2v2.7h-11.5v-20z"/>
    </g>
</svg>
