<svg xmlns="http://www.w3.org/2000/svg" viewBox="0 0 112 93">
    <g fill="#4e6a9b">
        <path d="M28 47.3c0-.3.1-.6.1-.9.2-2 .4-4 .8-6 .3-1.4 1.1-2.5 2.5-3.1.6-.3 1.2-.5 1.9-.7.5-.2.7 0 .7.5-.1 1-.2 2-.2 3.1-.2 2-.4 4-.2 6 .2 1.7.2 3.5.4 5.2.3 2.8.8 5.6 1.6 8.3 1.2 5.3 3.4 10.3 6.1 15 .1.1.2.3.3.5.1-.2.1-.2.2-.3 2.1-6.3 5.2-12.2 8.3-18.1 1-1.8 2-3.7 3.1-5.5 1.1-2 3.4-3 5.6-2.6 1.1.2 1.9.7 2.4 1.7.6 1.2 1 2.4 1.6 3.5 2.6 5.2 5.1 10.5 7.7 15.7 1.7 3.3 3.4 6.7 5 10 .1.1.1.2.3.5C84.3 66.5 90.8 52.2 95 36.8c.1.2.1.3.1.3.5 1.9 1.7 2.8 3.7 3l3.6.3c2.2.3 3.6 2.2 3.2 4.4-.4 1.9-1.2 3.6-1.9 5.4-1.7 4.5-3.5 9-5.6 13.4-2.9 6-6.2 11.8-9.9 17.4-1.8 2.7-3.5 5.5-5.3 8.3-.3.5-.7 1-1.1 1.5-1.3 1.7-3.1 2.3-5.2 2-1.6-.2-3.1-.7-4.3-1.9-.7-.8-1.4-1.7-1.9-2.7-4.3-8.6-8.6-17.2-12.9-25.9-.2-.5-.4-.9-.7-1.5-.2.3-.3.4-.4.6-1.9 3.4-3.5 7-5.1 10.6-1.3 3.3-2.5 6.6-3.3 10-.1.5-.2 1.1-.3 1.6-.4 1.8-1.3 2.3-3.1 1.8-1.2-.3-2.1-1.1-3-1.9-2.2-2-3.8-4.3-5.3-6.8-2.7-4.6-4.9-9.3-6.4-14.4-.8-2.8-1.3-5.6-1.6-8.5-.1-1-.1-2-.2-3 0-.2-.1-.3-.1-.5v-3z"/>
        <path d="M110.2 26.6c-.1-.2-.1-.3-.2-.5-.6-1.7-2-2.5-3.8-2.5h-3.5c-3.1.1-3.9-2.1-3.6-4.4.2-1.6.6-3.2.9-4.9 0-.2.1-.4.1-.6 0 .1.1.1.1.2.7 1.8 2.2 2.5 4.1 2.3 1.2-.1 2.5-.3 3.7-.2 1.9.1 3.4 1.6 3.5 3.5.1 1.5-.2 2.8-.6 4.2-.2.9-.5 1.9-.7 2.9z"/>
        <path d="M107 39.8c0-.1-.1-.2-.1-.4-.6-1.8-1.8-2.8-3.8-2.9-1.4-.1-2.8-.1-4.2-.3-1.6-.2-2.5-1.4-2.6-3-.1-1.5.4-2.9.8-4.3.2-.8.5-1.7.7-2.5 0 .1.1.2.1.3.7 1.8 1.9 2.4 3.9 2.4 1.1 0 2.1-.1 3.2-.1 2.3.1 3.8 1.7 3.9 4 0 1.3-.4 2.5-.8 3.7-.4 1-.7 2-1.1 3.1z"/>
        <path d="M53 23.9c-.5.2-.9.5-1.4.6-1.9.7-4.1.7-6.4 0-.1 0-.1 0-.2-.1v-1.8c2.9.9 5.4.6 7.4-.9s2.9-3.8 2.9-6.9c.6.2 1.1.3 1.7.5V15.6c0 2.4-.6 4.5-1.8 6.2-.3.4-.6.7-.9 1.1-.5.4-.9.7-1.3 1z"/>
        <path d="M75 23.2c-.4-.4-.8-.7-1.1-1.1-1.3-1.6-2.1-3.6-2.3-6v-.2c.6-.2 1.1-.4 1.7-.7.2 3 1.4 5.2 3.5 6.6 2.1 1.3 4.6 1.4 7.5.3 0 .6.1 1.2.1 1.8v.1c-.1 0-.1 0-.2.1-2.3.9-4.4 1.1-6.4.5-.5-.1-.9-.3-1.4-.5-.5-.4-.9-.7-1.4-.9z"/>
        <circle cx="57.4" cy="33.1" r="1.9"/>
        <circle cx="70.4" cy="33.1" r="1.9"/>
    </g>
    <path fill="#D24A43" d="M9.173 18.222L26.176 5.73l.592.806L9.765 19.028z"/>
    <path fill="#4e6a9b" d="M.4 13.4c.1-.6.1-1.2.2-1.8.6-3.5 2.6-6.1 5.5-8 6.5-4.2 13.4-4.8 20.4-1.3 2.9 1.4 5 3.7 5.9 6.9 0 .1.1.2.1.3.1.7.1 1.3.2 2-.1.5-.1 1.1-.2 1.6-.6 3.3-2.5 5.8-5.2 7.7-.6.4-.8.9-.4 1.5.5 1 1.2 2 1.8 3 .3.5.8.9.5 1.5-.4.7-1 .4-1.6.4h-.1c-2.3-.4-4.3-1.6-6.1-3-.2-.2-.5-.3-.7-.2-4.1 1-8.1.8-12-.7C5.4 22 2.9 20.1 1.4 17c-.3-.6-.5-1.3-.8-2 0-.5-.1-1-.2-1.6zm24.4 8.4c-.2-1 .2-1.7 1-2.3 1.5-1 2.7-2.2 3.6-3.6 2.3-3.8 1.5-8-2.1-10.7-2.8-2.1-6.1-2.9-9.5-3-3.3 0-6.5.7-9.4 2.4-1.9 1-3.5 2.4-4.7 4.2-2.2 3.6-1.5 7.7 1.9 10.4 2.6 2.1 5.6 3 8.8 3.2 2.1.1 4.1-.1 6.1-.6.7-.2 1.3.1 1.9.5 1 .8 2.1 1.5 3.1 2.2 0-.1 0-.1.1-.2-.3-.8-.6-1.6-.8-2.5z"/>
    <g fill="#6B6966">
        <path d="M16.5 12.8l2.3-1.7c-3.2-.7-6.7.3-8.9 2.7l1.3 1.3c1.5-1.5 3.4-2.3 5.3-2.3z"/>
        <path d="M18.1 12.9c1.6.3 3 1 4.2 2.2l1.3-1.3c-1-1.1-2.3-1.8-3.6-2.3l-1.9 1.4z"/>
    </g>
    <g fill="#6B6966">
        <path d="M20.8 9.6l1.8-1.3c-.9-.4-1.8-.7-2.8-1-.6-.1-1.3-.2-2-.3h-2.1l-1.8.3c-2.5.5-4.7 1.7-6.5 3.5l-.2.2v.1c.4.4.9.9 1.4 1.3 2.3-2.2 5.1-3.4 8.3-3.4 1.3-.1 2.7.2 3.9.6z"/>
        <path d="M23.6 8.8l-1.7 1.3c1.1.6 2.2 1.3 3.2 2.3l1.3-1.3-.1-.1c-.8-.9-1.7-1.6-2.7-2.2z"/>
    </g>
    <path fill="#6B6966" d="M15.4 14.9l-2.5 1.8 1.1 1.1c.8-.7 1.7-1.1 2.8-1.1 1.1 0 2.1.4 2.8 1.1.5-.5.9-.9 1.4-1.3-1.5-1.6-3.6-2.1-5.6-1.6z"/>
</svg>
